<svg width="220" height="241" viewBox="0 0 220 241" fill="none" xmlns="http://www.w3.org/2000/svg">
<path d="M0 177.212C11.2221 179.405 22.4491 181.593 33.6712 183.786C34.5969 183.968 35.5374 184.091 36.4434 184.338C37.3249 184.579 37.6105 184.313 37.6449 183.416C37.7434 180.794 37.9453 178.173 38.0536 175.551C38.2555 170.51 38.4082 165.463 38.6101 160.422C38.9351 152.305 39.265 144.189 39.6195 136.073C39.8115 131.687 40.0774 127.306 40.2449 122.925C40.2843 121.835 40.7668 121.604 41.7073 121.697C45.5383 122.077 49.3742 122.437 53.2101 122.801C57.8585 123.25 62.5068 123.698 67.1552 124.147C72.946 124.704 78.7367 125.256 84.5275 125.807C89.1759 126.246 93.8292 126.68 98.4776 127.108C98.7632 127.133 99.0537 127.123 99.3344 127.168C101.831 127.562 101.545 127.547 101.299 125.211C100.201 114.897 99.034 104.587 97.8817 94.2731C96.8526 85.0626 95.8037 75.8521 94.7648 66.6466C94.5826 65.0203 94.6712 64.9513 96.3405 64.9858C102.166 65.109 107.986 65.1879 113.811 65.316C120.779 65.4688 127.751 65.6511 134.719 65.8187C141.116 65.9763 147.507 66.134 153.903 66.2967C157.838 66.4002 161.777 66.4741 165.707 66.6466C166.765 66.6909 166.647 66.1094 166.573 65.4983C166.14 61.9994 165.677 58.5055 165.239 55.0066C164.461 48.7825 163.693 42.5584 162.915 36.3343C162.132 30.0708 161.344 23.8073 160.561 17.5388C160.123 14.0399 159.694 10.541 159.231 7.04213C159.103 6.0861 159.355 5.67707 160.408 5.55387C166.879 4.79988 173.339 3.96705 179.799 3.15885C186.669 2.29645 193.538 1.43404 200.407 0.566713C201.83 0.389304 203.253 0.216823 204.671 0.0147745C205.434 -0.093642 205.809 0.182327 205.902 0.970811C206.803 8.3382 207.714 15.7007 208.635 23.0631C209.492 29.9377 210.373 36.8123 211.235 43.6869C212.008 49.8716 212.771 56.0562 213.544 62.236C214.332 68.5389 215.13 74.8468 215.913 81.1497C216.691 87.3738 217.454 93.5979 218.232 99.822C218.754 104.016 219.291 108.205 219.823 112.393C219.847 112.595 219.892 112.797 219.911 113.004C220.128 114.956 220.123 114.981 218.119 114.936C209.837 114.764 201.554 114.581 193.272 114.389C186.836 114.241 180.4 114.069 173.964 113.916C166.874 113.744 159.778 113.581 152.687 113.404C151.254 113.369 149.821 113.3 148.388 113.221C147.606 113.182 147.266 113.438 147.364 114.291C148.408 123.373 149.437 132.46 150.447 141.548C151.313 149.329 152.146 157.115 152.997 164.901C153.495 169.425 153.972 173.949 154.519 178.468C154.627 179.375 154.43 179.636 153.51 179.543C148.452 179.035 143.395 178.577 138.338 178.104C133.646 177.665 128.958 177.231 124.265 176.788C118.553 176.246 112.846 175.694 107.134 175.152C102.446 174.708 97.7537 174.275 93.061 173.831C90.8599 173.624 88.6539 173.437 86.4578 173.171C85.6305 173.067 85.2464 173.259 85.1479 174.127C84.882 176.413 84.9756 178.715 84.8377 181.011C84.5324 186.087 84.4537 191.178 84.2518 196.263C83.9317 204.38 83.587 212.496 83.2472 220.613C83.0109 226.27 82.7745 231.923 82.5283 237.58C82.4988 238.235 82.4298 238.886 82.3609 239.541C82.1984 241.133 82.1885 241.148 80.5981 240.837C67.8446 238.359 55.0862 235.87 42.3327 233.386C28.6141 230.71 14.8906 228.034 1.17194 225.354C0.773088 225.275 0.39393 225.127 0 225.009C0 209.076 0 193.139 0 177.207L0 177.212Z" fill="black"/>
</svg>
