<svg width="220" height="206" viewBox="0 0 220 206" fill="none" xmlns="http://www.w3.org/2000/svg">
<path d="M219.531 90.9085C218.735 70.3211 208.24 45.1284 184.208 32.1216C158.785 18.3625 133.721 26.6385 123.776 31.0273C117.445 22.0901 100.059 1.97011 71.2904 0.590778C44.0936 -0.708757 22.3968 15.5012 11.3407 32.7828C-1.80308 53.3359 0.295899 75.1317 1.14896 84.0688C2.59691 99.0705 7.47951 110.721 13.4734 122.348C22.8345 140.485 41.2987 170.944 76.5659 205.176V205.233C76.5659 205.233 76.5883 205.233 76.6108 205.222C76.622 205.233 76.6445 205.245 76.6557 205.268V205.211C124.214 194.096 155.418 177.51 172.591 166.772C183.602 159.898 193.659 152.42 202.459 140.279C207.701 133.041 220.463 115.394 219.52 90.9085H219.531Z" fill="#0D0A01"/>
</svg>
