<svg width="129" height="75" viewBox="0 0 129 75" fill="none" xmlns="http://www.w3.org/2000/svg">
<path d="M120.6 29.0104C115.065 21.0807 108.913 12.006 99.1129 9.12837C89.1246 6.2025 80.8892 11.7132 78.7091 21.6387C76.6299 31.0913 80.4727 40.3398 82.3028 49.4831C83.3848 54.8882 83.5555 61.8132 79.1689 65.8979C73.8179 70.8822 66.7977 67.7176 62.0769 63.6589C55.5377 58.0432 49.8484 50.8523 44.9078 43.8156C42.5425 40.4377 40.3485 35.726 36.8216 33.3849C32.2333 30.332 28.1578 32.9681 25.8156 37.205C21.3808 45.2562 24.8777 55.6727 22.6031 64.3956C21.579 68.3274 15.3797 67.0076 16.412 63.0463C19.4672 51.2911 13.4145 32.54 28.245 26.4868C41.6648 21.0069 49.7111 40.4096 56.2871 48.3218C59.3927 52.0589 73.8282 69.635 76.4053 57.8668C78.0137 50.5142 73.5917 41.9009 72.4302 34.6691C70.4411 22.2328 73.8341 6.46624 87.7065 2.68558C104.766 -1.96901 117.331 13.2737 125.886 25.5294C128.23 28.8793 122.925 32.3613 120.591 29.0206L120.6 29.0104Z" fill="black"/>
<path d="M38.174 59.4224C33.344 65.7517 26.9738 70.6256 19.7484 73.9195C18.4174 74.5272 16.8915 73.6944 16.0949 72.6566C12.0411 67.4223 7.9872 62.188 3.94309 56.9532C2.89544 55.5978 3.49031 53.4522 4.84485 52.5607C6.36845 51.5529 8.1813 52.1072 9.23867 53.4621C13.2925 58.6963 17.3463 63.9306 21.3905 69.1654C20.1694 68.7446 18.958 68.3233 17.7369 67.9025C23.9737 65.0615 29.3149 60.6135 33.4632 55.1879C34.5001 53.8267 36.7334 53.8712 37.9411 54.9453C39.303 56.1668 39.2298 58.0504 38.1837 59.4219L38.174 59.4224Z" fill="black"/>
</svg>
