<svg width="133" height="100" viewBox="0 0 133 100" fill="none" xmlns="http://www.w3.org/2000/svg">
<path d="M126.498 3.05659C124.17 -1.56955 116.709 1.53451 119.049 6.1907C126.305 20.6275 127.341 38.3986 117.187 51.7657C111.989 58.6112 104.4 63.1683 96.377 64.4896C98.5049 55.9253 97.2613 46.8138 90.878 38.7757C85.5604 32.078 76.0074 27.3307 67.4963 30.5932C58.1299 34.1802 56.5555 45.0089 59.9929 53.4187C64.3106 63.9643 73.9028 70.1828 84.4882 72.1401C79.8198 78.9396 72.3649 84.3347 64.7999 87.1105C45.6984 94.1475 23.7794 91.1853 5.8604 82.2097C1.20611 79.8732 -1.80602 87.3573 2.82685 89.6851C24.1857 100.392 52.1488 103.158 73.9147 91.9536C81.9915 87.7935 89.0168 80.8435 93.2159 72.7714C99.73 72.5542 106.194 70.7994 111.639 67.4989C133.963 53.9962 137.576 25.0769 126.498 3.05659ZM74.9575 59.4666C69.8601 55.7313 62.05 45.3978 68.3525 39.4604C74.7648 33.406 84.1742 41.9507 86.9204 47.6671C89.7689 53.5618 89.8793 59.3777 88.1826 64.6966C83.5879 64.1504 79.064 62.4763 74.9575 59.4666Z" fill="#0D0A01"/>
</svg>
