<svg width="238" height="108" viewBox="0 0 238 108" fill="none" xmlns="http://www.w3.org/2000/svg">
<path d="M45.025 0.958422C67.9597 5.53817 81.1861 23.2623 79.4588 44.1584C78.8435 51.6003 79.5354 58.0367 86.7999 61.9489C95.7888 66.7868 104.063 61.5544 107.565 49.1045C112.237 32.499 123.166 22.3404 140.169 19.7344C156.796 17.185 169.995 23.6299 179.359 37.5032C184.566 45.2151 186.715 53.9574 185.343 63.1926C184.048 71.9006 186.503 78.7547 195.096 81.3097C203.202 83.7191 209.301 79.9088 212.184 71.8855C214.763 64.7133 219.838 69.1225 223.46 69.6595C240.378 72.1641 241.6 75.4287 231.891 89.9651C221.906 104.915 203.444 111.271 186.266 105.674C169.434 100.191 158.149 83.5629 159.419 65.6923C159.817 60.111 160.727 54.5553 156.594 49.9256C153.181 46.0998 149.035 44.0502 143.671 45.1617C136.128 46.7242 133.297 52.0045 131.473 58.8942C124.537 85.0997 96.0439 97.4035 73.3312 83.9531C59.3167 75.656 52.3396 62.9243 53.6528 46.6813C54.3668 37.8485 53.6527 30.2284 44.3532 27.2827C35.7321 24.5532 29.6807 28.6395 26.6784 37.1512C24.6055 43.0325 20.2241 39.574 17.0594 39.0926C-1.66752 36.2549 -3.44232 31.6692 8.59158 16.4208C18.6731 3.64625 32.0732 -1.17464 45.025 0.958422Z" fill="#00B5E7"/>
</svg>
