<svg width="362" height="363" viewBox="0 0 362 363" fill="none" xmlns="http://www.w3.org/2000/svg">
<g clip-path="url(#clip0_0_1128)">
<path d="M289.369 249.182C300.837 225.722 299.144 204.51 297.649 185.797C295.227 155.473 285.075 132.804 280.193 121.906C271.739 103.029 260.613 85.3107 247.126 69.248L247.075 69.1877C236.133 56.2208 216.64 54.5684 203.62 65.5039C202.883 66.1245 202.178 66.773 201.508 67.447C197.575 63.2312 193.489 59.1584 189.286 55.2659C183.242 49.6663 175.371 46.7585 167.13 47.0793C158.886 47.4023 151.254 50.9151 145.643 56.9689C142.445 60.4183 140.174 64.426 138.835 68.6704C133.09 66.0351 126.681 65.2384 120.336 66.4282C112.226 67.9509 105.187 72.5373 100.515 79.3463C92.6711 90.7808 93.4215 106.151 102.341 116.72C104.122 118.832 106.185 120.697 108.478 122.269C119.787 130.016 130.182 139.085 139.37 149.223C140.754 150.748 142.126 152.317 143.454 153.893C146.015 156.931 148.479 160.056 150.831 163.265C132.508 159.278 112.701 159.472 92.5547 163.927C84.4981 165.709 77.6091 170.521 73.1587 177.474C68.7082 184.427 67.2283 192.695 68.993 200.752C70.0608 205.626 72.3225 210.215 75.5327 214.018C81.2444 220.786 89.4364 224.665 98.0335 224.95C96.9039 226.71 95.8851 228.564 94.9769 230.511C87.4207 246.732 90.078 266.798 101.591 280.442C101.741 280.621 102.143 281.083 102.143 281.083L102.569 281.554C102.569 281.554 102.963 281.984 103.341 282.383C123.351 303.648 150.113 306.146 166.101 307.64C182.966 309.218 208.452 311.599 237.776 297.583C246.79 293.276 274.22 280.163 289.369 249.177L289.369 249.182Z" fill="#0256CE"/>
<path d="M117.494 266.993C111.283 259.633 109.731 248.034 113.823 239.249C116.7 233.073 123.019 225.501 136.788 224.474C144.341 223.91 152.042 225.452 158.231 226.688C159.515 226.944 160.734 227.19 161.863 227.393C168.23 228.544 173.91 227.526 175.72 225.882C175.969 225.654 176.555 225.123 176.367 222.863C176.101 219.677 172.097 214.366 154.551 207.158C138.776 200.675 120.86 199.583 101.305 203.908C95.8671 205.11 90.4973 201.68 89.3049 196.247C88.1149 190.812 91.5572 185.435 96.9924 184.231C120.309 179.077 142.872 180.557 162.242 188.514C171.996 192.52 194.838 201.901 196.448 221.139C197.291 231.204 193.004 237.372 189.259 240.778C179.002 250.106 162.922 248.072 158.235 247.225C156.991 246.999 155.647 246.734 154.234 246.449C141.747 243.952 134.122 243.362 132.086 247.727C131.329 249.352 131.744 252.562 132.873 253.939C132.954 254.025 133.069 254.15 133.182 254.268C141.939 263.575 153.957 265.354 169.982 266.848C183.832 268.141 201.064 269.75 220.16 260.624C227.204 257.258 243.698 249.373 252.565 231.239C259.102 217.872 258.138 205.814 256.806 189.127C254.945 165.829 247.339 148.844 242.79 138.697C235.88 123.27 226.774 108.771 215.717 95.6046C212.143 91.3458 212.703 84.99 216.968 81.4049C221.225 77.8266 227.568 78.3661 231.147 82.6064L231.165 82.625C243.414 97.2209 253.516 113.301 261.187 130.426C265.928 141.013 274.759 160.722 276.894 187.48C278.302 205.091 279.629 221.727 270.664 240.059C258.706 264.516 236.99 274.896 228.816 278.803C204.689 290.335 183.518 288.359 168.062 286.912C153.317 285.536 133.127 283.65 118.491 268.095C118.201 267.789 117.902 267.459 117.902 267.459L117.738 267.276C117.655 267.178 117.573 267.085 117.49 266.988L117.494 266.993ZM118.242 103.273C115.393 99.8983 115.025 94.9057 117.651 91.0796C120.805 86.4864 127.076 85.3102 131.665 88.4514C145.604 97.9984 158.412 109.174 169.737 121.67C182.502 135.753 193.37 151.484 202.045 168.433C204.578 173.384 202.616 179.457 197.66 182.001C192.704 184.545 186.637 182.594 184.101 177.646C176.23 162.269 166.366 147.992 154.79 135.22C144.516 123.885 132.897 113.746 120.252 105.085C119.486 104.559 118.815 103.948 118.247 103.273L118.242 103.273ZM215.795 169.705C215.005 168.77 214.377 167.675 213.962 166.447C208.419 150.077 200.748 134.515 191.164 120.186C182.656 107.467 172.643 95.7395 161.4 85.3231C157.319 81.5351 157.088 75.1678 160.876 71.0835C164.661 66.9968 171.038 66.747 175.117 70.528C187.507 82.0082 198.544 94.9359 207.923 108.956C218.49 124.751 226.943 141.906 233.053 159.947C234.837 165.217 232.011 170.941 226.737 172.736C222.692 174.113 218.388 172.776 215.795 169.705Z" fill="#F4EDED"/>
</g>
<defs>
<clipPath id="clip0_0_1128">
<rect width="259.384" height="252.319" fill="white" transform="translate(179.146 0.56842) rotate(45.2304)"/>
</clipPath>
</defs>
</svg>
