<svg width="24" height="24" viewBox="0 0 24 24" fill="none" xmlns="http://www.w3.org/2000/svg">
<path d="M18.4137 13.8499C17.0699 13.8499 15.8595 14.3617 14.8885 15.293C14.7504 15.4313 14.6584 15.5696 14.5157 15.7126C14.4697 15.7587 14.3776 15.8048 14.2856 15.8048C14.1935 15.8048 14.1475 15.7587 14.0555 15.7126L7.5619 9.25336C7.51588 9.20725 7.46985 9.11504 7.46985 9.02284C7.46985 8.93063 7.51588 8.88452 7.5619 8.79231C7.69996 8.70011 7.83802 8.56179 7.98069 8.41887C9.92738 6.46866 9.92738 3.35202 8.02671 1.44792C7.09248 0.512001 5.88673 0.000244141 4.58893 0.000244141C3.29114 0.000244141 2.03476 0.512001 1.05911 1.48941C-0.611455 3.16299 -0.00397646 5.80937 0.829006 7.76419C2.21884 11.0653 5.19181 14.9703 8.85509 18.1284C12.661 21.4295 16.3243 23.3336 19.0166 23.3336C20.1763 23.3336 21.1059 22.9601 21.8469 22.264C22.7765 21.3327 23.2873 20.0786 23.3333 18.7785C23.3333 17.4783 22.8225 16.2243 21.8929 15.293C20.9632 14.3617 19.7575 13.8499 18.4137 13.8499Z" fill="black"/>
</svg>
