<svg width="52" height="52" viewBox="0 0 52 52" fill="none" xmlns="http://www.w3.org/2000/svg">
<path d="M6.39193 45.5H44.7966L40.236 17.0625H10.9525L6.39193 45.5ZM25.5943 11.375C26.501 11.375 27.2617 11.102 27.8761 10.556C28.4906 10.01 28.7968 9.33508 28.7947 8.53125C28.7947 7.72552 28.4874 7.04966 27.8729 6.50366C27.2585 5.95766 26.4989 5.6856 25.5943 5.6875C24.6875 5.6875 23.9269 5.9605 23.3124 6.5065C22.6979 7.0525 22.3917 7.72742 22.3939 8.53125C22.3939 9.33698 22.7011 10.0128 23.3156 10.5588C23.9301 11.1048 24.6896 11.3769 25.5943 11.375ZM34.6354 11.375H40.236C41.8362 11.375 43.2231 11.849 44.3965 12.7969C45.57 13.7448 46.2901 14.906 46.5568 16.2805L51.1174 44.718C51.3841 46.4242 50.8901 47.9295 49.6356 49.2338C48.381 50.5382 46.768 51.1894 44.7966 51.1875H6.39193C4.41836 51.1875 2.80429 50.5353 1.54974 49.231C0.295189 47.9267 -0.197671 46.4223 0.0711616 44.718L4.63171 16.2805C4.89841 14.906 5.6185 13.7448 6.79198 12.7969C7.96545 11.849 9.35229 11.375 10.9525 11.375H16.5532C16.3931 10.901 16.2598 10.4394 16.1531 9.99009C16.0464 9.54078 15.9931 9.0545 15.9931 8.53125C15.9931 6.16146 16.9265 4.14714 18.7934 2.48828C20.6603 0.829427 22.9273 0 25.5943 0C28.2613 0 30.5282 0.829427 32.3951 2.48828C34.262 4.14714 35.1954 6.16146 35.1954 8.53125C35.1954 9.0526 35.1421 9.53888 35.0354 9.99009C34.9287 10.4413 34.7954 10.9029 34.6354 11.375Z" fill="black"/>
</svg>
