<svg width="282" height="191" viewBox="0 0 282 191" fill="none" xmlns="http://www.w3.org/2000/svg">
<path d="M250.685 39.671C259.735 51.0245 268.363 62.7509 277.993 73.5913C284.676 81.1169 282.002 84.1034 274.198 87.2148C260.733 92.5812 247.623 89.3145 234.483 86.3958C218.436 82.8326 203.13 82.043 189.328 93.5681C176.455 104.315 175.11 118.908 174.405 133.924C174.098 140.473 174.268 147.07 173.529 153.568C170.694 178.527 148.665 194.426 123.869 189.631C115.395 187.993 106.952 186.194 98.4802 184.55C88.5913 182.631 79.0226 184.016 70.4544 189.118C65.8794 191.843 63.4144 191.426 60.1948 187.337C41.3749 163.437 22.463 139.611 3.27695 116.007C-1.23711 110.45 0.887275 107.562 5.82812 104.709C12.0451 101.122 18.8138 99.8052 25.805 100.775C37.0834 102.341 48.2559 104.683 59.5442 106.145C85.3308 109.488 105.062 93.6793 107.446 67.7179C108.139 60.1788 107.701 52.5366 107.835 44.9458C108.394 13.2503 131.949 -4.83349 162.954 1.91584C176.309 4.82336 190.777 11.5222 203.491 4.65656C217.603 -2.96109 223.255 3.65649 230.131 13.6355C236.392 22.7217 243.794 31.0214 250.687 39.6731L250.685 39.671Z" fill="#FDBE76"/>
</svg>
