<svg width="186" height="191" viewBox="0 0 186 191" fill="none" xmlns="http://www.w3.org/2000/svg">
<path d="M154.618 39.7798C163.667 51.1333 172.296 62.8596 181.925 73.7001C188.609 81.2256 185.934 84.2122 178.131 87.3235C164.666 92.6899 151.556 89.4233 138.416 86.5046C122.368 82.9414 107.063 82.1517 93.2604 93.6769C80.3876 104.423 79.0424 119.017 78.3377 134.033C78.0308 140.582 78.2001 147.178 77.462 153.677C74.6261 178.636 52.5975 194.535 27.8015 189.74C19.3274 188.102 10.8844 186.302 2.4128 184.659C-7.47607 182.74 -17.0448 184.124 -25.613 189.227C-30.188 191.951 -32.653 191.535 -35.8725 187.446C-54.6925 163.546 -73.6044 139.72 -92.7904 116.115C-97.3045 110.559 -95.1801 107.67 -90.2393 104.817C-84.0223 101.23 -77.2536 99.914 -70.2623 100.883C-58.984 102.45 -47.8115 104.792 -36.5232 106.253C-10.7365 109.596 8.99505 93.7881 11.3785 67.8267C12.0718 60.2875 11.6333 52.6454 11.7673 45.0546C12.3264 13.3591 35.8817 -4.72473 66.8871 2.0246C80.2419 4.93213 94.7099 11.631 107.423 4.76532C121.536 -2.85232 127.188 3.76525 134.064 13.7442C140.325 22.8305 147.726 31.1302 154.62 39.7818L154.618 39.7798Z" fill="#FDBE76"/>
</svg>
