<svg width="240" height="236" viewBox="0 0 240 236" fill="none" xmlns="http://www.w3.org/2000/svg">
<g style="mix-blend-mode:darken">
<path d="M221.191 188.223C215.453 201.558 209.188 214.698 204.176 228.302C200.696 237.744 196.801 236.796 190.376 231.385C179.292 222.048 175.985 208.95 172.357 195.99C167.926 180.162 161.399 166.298 144.727 159.57C129.179 153.293 115.68 158.994 102.111 165.458C96.1935 168.278 90.4582 171.54 84.3814 173.956C61.0419 183.234 36.6313 171.319 29.1573 147.198C26.6024 138.955 24.2048 130.663 21.6557 122.42C18.6814 112.797 12.9453 105.016 4.40455 99.8704C-0.156249 97.1233 -0.952414 94.7539 1.13304 89.9862C13.3199 62.1183 25.3988 34.204 37.1526 6.15291C39.9207 -0.448316 43.4693 0.0613423 48.3156 3.0705C54.4113 6.85815 58.7658 12.2036 61.2103 18.8239C65.1518 29.5049 68.3589 40.4589 72.3975 51.0992C81.6192 75.4077 104.865 85.3416 128.875 75.1918C135.848 72.2454 142.378 68.2526 149.132 64.7887C177.336 50.325 204.392 62.5556 213.074 93.072C216.813 106.216 217.735 122.131 229.786 130.098C243.161 138.944 239.994 147.049 234.442 157.819C229.387 167.626 225.564 178.067 221.19 188.226L221.191 188.223Z" fill="#FDBE76"/>
</g>
</svg>
