<svg width="215" height="214" viewBox="0 0 215 214" fill="none" xmlns="http://www.w3.org/2000/svg">
<path d="M107.851 45.951C107.851 -20.3266 56.3764 -9.37243 83.6286 51.0902C56.3764 -9.39291 13.8088 21.5448 63.5836 65.648C13.7884 21.5448 -12.522 67.1222 51.1962 87.1058C-12.522 67.1426 -18.0298 119.477 48.6163 111.737C-18.0298 119.477 -1.75216 169.518 56.274 135.283C-1.75216 169.518 33.4648 208.625 72.8383 153.69C33.4648 208.625 81.5401 230.042 95.4631 163.764C81.5401 230.042 134.161 230.042 120.238 163.764C134.161 230.042 182.236 208.625 142.863 153.69C182.236 208.625 217.453 169.518 159.427 135.283C217.453 169.518 233.71 119.456 167.085 111.737C233.731 119.477 228.223 67.1426 164.505 87.1058C228.223 67.1426 201.913 21.5653 152.117 65.648C201.913 21.5448 159.325 -9.39291 132.072 51.0902C159.325 -9.39291 107.851 -20.3266 107.851 45.951Z" fill="#0D0A01"/>
</svg>
