<svg width="245" height="171" viewBox="0 0 245 171" fill="none" xmlns="http://www.w3.org/2000/svg">
<path d="M244.523 67.6759L231.422 77.6867L244.068 87.4091L228.39 93.6511L237.399 106.238L220.576 108.672L225.92 122.928L209.024 122.043L211.071 137.064L194.737 133.419L193.907 148.624L178.51 142.68L175.143 157.678L160.931 149.786L155.297 164.293L142.455 154.731L134.785 168.521L123.468 157.526L113.925 170.382L104.351 158.114L93.0149 169.766L85.4693 156.375L72.4385 166.502L67.2595 152.182L52.6689 160.378L50.3035 145.401L34.376 151.117L35.3885 135.928L18.5756 138.445L23.5756 123.794L6.76648 122.336L16.0726 109.383L0.645544 103.571L13.7438 93.5604L1.1001 83.8376L16.7786 77.5956L7.76914 65.0063L24.5917 62.5726L19.2483 48.3188L36.1448 49.2038L34.0975 34.1825L50.4284 37.8281L51.2618 22.623L66.658 28.5662L70.0253 13.5691L84.2375 21.4609L89.8688 6.9544L102.713 16.5157L110.383 2.72568L121.701 13.721L131.243 0.864759L140.818 13.1332L152.151 1.48151L159.699 14.872L172.73 4.74481L177.909 19.065L192.499 10.8682L194.865 25.8454L210.793 20.1292L209.78 35.3185L226.593 32.8016L221.593 47.4529L238.402 48.9105L229.096 61.864L244.523 67.6759Z" fill="#FF0095"/>
</svg>
