<svg width="224" height="222" viewBox="0 0 224 222" fill="none" xmlns="http://www.w3.org/2000/svg">
<path d="M197.535 131.686L223.44 118.018L199.426 101.256L219.088 79.5672L190.783 72.0151L201.829 44.9184L172.643 47.4922L173.743 18.2544L147.199 30.6407L138.217 2.79238L117.516 23.4962L99.5378 0.396118L87.1781 26.9215L62.3726 11.3513L59.8396 40.5003L31.1985 34.3404L38.8031 62.5964L9.77872 66.5902L26.6045 90.5445L0.699219 104.212L24.7103 120.972L5.05149 142.663L33.3565 150.213L22.3106 177.312L51.4961 174.738L50.3962 203.973L76.9404 191.59L85.9227 219.438L106.623 198.734L124.602 221.834L136.961 195.309L161.767 210.879L164.3 181.73L192.941 187.887L185.336 159.634L214.361 155.638L197.535 131.686Z" fill="#93C300"/>
</svg>
