<svg width="54" height="38" viewBox="0 0 54 38" fill="none" xmlns="http://www.w3.org/2000/svg">
<path d="M-6.94138 0.308371C0.211639 1.88576 4.33677 7.99041 3.79806 15.1876C3.60615 17.7508 3.82193 19.9676 6.08763 21.3151C8.89117 22.9814 11.4717 21.1792 12.5638 16.8911C14.0211 11.1718 17.4296 7.67288 22.7327 6.7753C27.9185 5.89722 32.0351 8.11703 34.9557 12.8954C36.5794 15.5515 37.2499 18.5626 36.8218 21.7435C36.4181 24.7427 37.1836 27.1035 39.8637 27.9835C42.392 28.8133 44.2941 27.501 45.1933 24.7375C45.9975 22.2672 47.5804 23.7859 48.71 23.9708C53.9864 24.8335 54.3677 25.9579 51.3395 30.9646C48.2253 36.1137 42.4674 38.3029 37.1097 36.3753C31.8599 34.4867 28.3403 28.7595 28.7365 22.6044C28.8605 20.6821 29.1445 18.7685 27.8556 17.174C26.7911 15.8562 25.4979 15.1503 23.8248 15.5331C21.4722 16.0713 20.5895 17.89 20.0207 20.263C17.8574 29.2888 8.97072 33.5266 1.88694 28.8939C-2.484 26.0362 -4.66007 21.651 -4.2505 16.0565C-4.02781 13.0143 -4.25052 10.3897 -7.1509 9.37516C-9.83969 8.43503 -11.727 9.84247 -12.6634 12.7741C-13.31 14.7998 -14.6764 13.6086 -15.6635 13.4428C-21.5041 12.4654 -22.0577 10.886 -18.3045 5.63403C-15.1602 1.23413 -10.9809 -0.426311 -6.94138 0.308371Z" fill="#93C300"/>
</svg>
