<svg width="236" height="96" viewBox="0 0 236 96" fill="none" xmlns="http://www.w3.org/2000/svg">
<g style="mix-blend-mode:darken">
<path d="M27.696 33.3765C50.2967 27.3615 69.9888 37.4264 77.6634 56.9388C80.3965 63.888 83.8586 69.3578 92.104 69.6614C102.305 70.0342 107.42 61.6867 105.066 48.9698C101.928 32.0072 107.25 18.0676 121.356 8.22328C135.15 -1.40433 149.839 -1.448 164.365 6.86663C172.441 11.4882 178.229 18.3835 181.074 27.2762C183.757 35.6611 188.985 40.7277 197.823 39.227C206.161 37.8103 209.951 31.6991 208.996 23.2271C208.144 15.6534 214.644 17.3692 218.131 16.2523C234.417 11.0313 236.955 13.421 234.66 30.7504C232.3 48.5725 218.541 62.4256 200.656 64.9872C183.132 67.4976 165.666 57.5589 158.917 40.9631C156.81 35.7795 155.174 30.3925 149.422 28.0626C144.671 26.1364 140.045 26.1278 135.723 29.4931C129.644 34.225 129.436 40.2123 130.84 47.1995C136.185 73.7752 116.05 97.3936 89.7323 95.3511C73.4945 94.0929 61.6137 85.7488 55.6216 70.5944C52.3631 62.3537 48.3585 55.8315 38.7139 57.2936C29.7733 58.6501 26.1474 64.9881 27.2108 73.9509C27.9471 80.1432 22.489 78.974 19.4368 79.9391C1.38067 85.6597 -2.23614 82.3286 1.83045 63.3341C5.23725 47.4211 15.1328 37.18 27.696 33.3765Z" fill="#00AC56"/>
</g>
</svg>
