<svg width="92" height="222" viewBox="0 0 92 222" fill="none" xmlns="http://www.w3.org/2000/svg">
<path d="M196.836 131.29L222.741 117.622L198.727 100.859L218.389 79.1711L190.084 71.6189L201.129 44.5223L171.944 47.0961L173.044 17.8583L146.5 30.2445L137.517 2.39627L116.817 23.1001L98.8385 0L86.4789 26.5253L61.6734 10.9551L59.1404 40.1042L30.4992 33.9443L38.1039 62.2003L9.0795 66.1941L25.9053 90.1484L0 103.816L24.0111 120.576L4.35227 142.267L32.6573 149.817L21.6114 176.916L50.7969 174.342L49.697 203.577L76.2412 191.194L85.2234 219.042L105.924 198.338L123.902 221.438L136.262 194.913L161.067 210.483L163.6 181.334L192.242 187.491L184.637 159.238L213.661 155.241L196.836 131.29Z" fill="#93C300"/>
</svg>
