<svg width="233" height="231" viewBox="0 0 233 231" fill="none" xmlns="http://www.w3.org/2000/svg">
<mask id="mask0_166_305" style="mask-type:alpha" maskUnits="userSpaceOnUse" x="0" y="0" width="233" height="231">
<path d="M116.287 49.2975C116.287 -22.5838 60.4099 -10.7139 89.9914 54.8831C60.4099 -10.7139 14.1943 22.8371 68.2449 70.6708C14.1974 22.8371 -14.3646 72.271 54.8046 93.9336C-14.3646 72.271 -20.3364 129.039 51.9958 120.649C-20.3333 129.039 -2.683 183.329 60.302 146.196C-2.683 183.326 35.5405 225.746 78.2881 166.16C35.5405 225.749 87.7246 248.966 102.846 177.085C87.7246 248.966 144.849 248.966 129.727 177.085C144.849 248.966 197.033 225.749 154.285 166.16C197.033 225.749 235.256 183.329 172.271 146.196C235.256 183.326 252.91 129.039 180.578 120.649C252.907 129.039 246.938 72.271 177.769 93.9336C246.938 72.271 218.376 22.8371 164.329 70.6708C218.376 22.8371 172.161 -10.717 142.579 54.8831C172.161 -10.7139 116.284 -22.5807 116.284 49.2975H116.287Z" fill="#93C300"/>
</mask>
<g mask="url(#mask0_166_305)">
<rect x="116.2" y="-30.9287" width="159.544" height="300.855" fill="#93C300"/>
</g>
</svg>
