<svg width="275" height="274" viewBox="0 0 275 274" fill="none" xmlns="http://www.w3.org/2000/svg">
<path d="M274.267 133.828H161.549L270.429 104.656L268.792 98.5613L159.916 127.734L257.533 71.3728L254.377 65.9086L156.76 122.266L236.464 42.5653L232.002 38.1032L152.301 117.804L208.658 20.19L203.194 17.0335L146.833 114.651L176.009 5.7743L169.911 4.13809L140.735 113.021V0.299805H134.425V113.014L105.253 4.13809L99.158 5.7743L128.33 114.651L71.973 17.0335L66.5053 20.19L122.866 117.804L43.162 38.1032L38.6998 42.5653L118.404 122.269L20.7867 65.9086L17.6301 71.3728L115.247 127.734L6.371 98.5613L4.73486 104.656L113.615 133.828H0.896484V140.142H113.615L4.73486 169.314L6.371 175.409L115.244 146.236L17.6301 202.594L20.7867 208.058L118.404 151.701L38.6998 231.405L43.162 235.867L122.866 156.159L66.5053 253.78L71.973 256.937L128.33 159.319L99.158 268.196L105.253 269.832L134.425 160.956V273.67H140.735V160.949L169.911 269.832L176.009 268.196L146.833 159.319L203.194 256.937L208.658 253.78L152.297 156.159L232.002 235.867L236.464 231.405L156.76 151.701L254.377 208.058L257.533 202.594L159.92 146.236L268.792 175.409L270.429 169.314L161.549 140.142H274.267V133.828Z" fill="#1ABE71"/>
</svg>
