<svg width="204" height="185" viewBox="0 0 204 185" fill="none" xmlns="http://www.w3.org/2000/svg">
<g style="mix-blend-mode:darken">
<path d="M195.441 32.8665C186.278 16.6343 167.291 0.756703 142.266 0.379719C115.796 -0.0178903 98.7219 17.1636 92.4108 24.8672C83.5412 20.3354 61.0131 11.4353 36.9209 22.4088C14.1469 32.781 3.10965 54.9373 1.21935 73.4807C-1.0302 95.5394 9.69252 112.201 14.0896 119.034C21.4713 130.504 30.2786 137.827 39.9913 144.667C55.1431 155.334 82.8284 172.099 125.811 184.846L125.822 184.899C125.839 184.888 125.852 184.875 125.865 184.864C125.882 184.868 125.9 184.875 125.919 184.879L125.908 184.825C160.184 155.923 178.832 129.469 188.44 113.625C194.6 103.465 199.733 93.227 201.9 79.7605C203.19 71.7351 206.338 52.176 195.438 32.867L195.441 32.8665Z" fill="#00AC56"/>
</g>
</svg>
