<svg width="70" height="70" viewBox="0 0 70 70" fill="none" xmlns="http://www.w3.org/2000/svg">
<path d="M34.8075 0C15.584 0 0 15.584 0 34.8075C0 54.0311 15.584 69.615 34.8075 69.615C54.031 69.615 69.615 54.0311 69.615 34.8075C69.615 15.584 54.031 0 34.8075 0ZM51.8151 38.6308C50.8545 38.9982 49.8863 39.1015 48.7382 38.9446C47.5938 38.8757 46.4457 38.6308 45.4736 38.382C44.5896 38.1333 43.9734 38.0529 43.5333 38.0606C42.8291 38.072 42.3928 38.3438 42.1402 38.9637C41.8876 39.5837 41.8953 40.1119 42.167 40.6362C42.7947 41.2409 43.4185 41.8494 44.1303 42.278C44.7541 42.7066 45.378 43.2271 45.9137 43.7438C46.4495 44.2643 46.8131 44.8728 47.0006 45.6612C47.3757 47.0619 47.3068 48.21 46.794 49.1859C46.2812 50.1618 45.5004 50.8813 44.5398 51.3368C43.231 51.9759 41.8264 52.1749 40.3224 51.7578C39.0824 51.3368 38.2787 50.6479 37.9151 49.7715C37.4597 48.8989 37.2683 47.9345 37.165 46.8782C37.0617 45.9099 36.7823 44.9493 36.5029 43.9849C36.1432 43.4644 35.6112 43.208 34.9912 43.1315C34.375 43.0549 33.8507 43.3266 33.5943 43.9466C33.2613 45.0067 33.1006 46.0668 33.0279 47.0351C32.959 48.1794 32.7102 49.1515 32.3735 49.9513C31.9487 50.8392 31.0799 51.5587 29.6792 52.0218C27.9264 52.4926 26.2501 52.2553 24.7384 51.222C23.5826 50.4489 22.9435 49.14 22.9129 47.2915C22.8937 46.1472 23.1425 45.1751 23.6591 44.5513C24.0878 43.9275 24.6963 43.3917 25.4808 42.8482C26.1774 42.3966 26.8701 41.681 27.6508 40.8773C27.9111 40.6094 28.0794 40.1655 27.9838 39.7292C27.8881 39.2891 27.6202 38.9446 27.2604 38.6844C26.9045 38.4241 26.4606 38.2557 25.9363 38.3552C25.1479 38.6308 24.4475 38.9063 23.7472 39.1819C22.7904 39.8134 21.826 40.0927 20.9457 40.1081C18.7451 40.1425 17.3253 39.3771 16.5063 37.8041C15.6873 36.2312 15.5725 34.6506 16.1657 33.0547C16.9273 31.1947 18.0563 30.2073 19.3728 30.0963C20.6931 29.9853 22.0173 30.2303 23.3453 30.7355C23.7893 30.9039 24.2294 31.0723 24.6733 31.1526C25.0254 31.2368 25.2933 31.3172 25.5574 31.4014L25.7334 31.4856L25.8215 31.5736H25.9095C26.7017 31.6463 27.226 31.3746 27.5704 30.8388C27.9149 30.3068 27.9034 29.6907 27.5437 29.0783C26.916 28.2976 26.2003 27.6929 25.4005 27.1763C24.6006 26.7476 23.9768 26.1429 23.4372 25.5344C22.8134 24.9298 22.5302 23.9653 22.511 22.733C22.4881 21.3246 22.9971 20.0846 23.9462 19.1011C24.8991 18.1175 26.0358 17.5702 27.4403 17.5473C28.8487 17.5243 30.0007 18.0333 30.9842 18.9863C31.608 19.5029 31.9716 20.0272 32.1553 20.6396C32.2548 21.2557 32.3505 21.8681 32.45 22.4842C32.4615 23.2765 32.6528 24.2409 33.0241 25.2015C33.3915 26.0741 33.9273 26.5065 34.7195 26.495C35.4237 26.5716 35.9441 26.1238 36.2848 25.2359C36.4493 24.4399 36.5259 23.7357 36.5986 22.9435C36.6751 22.1513 36.7517 21.4433 37.0004 20.7353C37.165 20.1153 37.5056 19.4073 38.1141 18.7796C39.8478 17.2564 41.6925 16.9617 43.7285 17.7195C45.7683 18.5653 46.7595 20.1344 46.7978 22.335C46.8169 23.5673 46.572 24.5394 45.9635 25.167C45.3588 25.7947 44.7503 26.4185 43.9696 26.962C43.273 27.4136 42.5803 28.0412 41.9757 28.7568C41.547 29.3807 41.5547 29.9088 41.9183 30.5173C42.19 31.1297 42.7258 31.3861 43.5142 31.2828C43.9504 31.1871 44.4786 31.0034 45.0909 30.9039C46.2314 30.6207 47.3719 30.3375 48.5124 30.1423C49.6528 29.9471 50.6249 30.0198 51.509 30.4446C53.1049 31.21 53.92 32.6069 54.0387 34.4516C54.0693 36.3001 53.3001 37.7199 51.819 38.627L51.8151 38.6308Z" fill="#1ABE71"/>
</svg>
