<svg width="63" height="63" viewBox="0 0 63 63" fill="none" xmlns="http://www.w3.org/2000/svg">
<path d="M46.3778 19.7129C46.0134 18.7855 45.616 18.1562 44.9205 17.4607C44.225 16.7652 43.5957 16.3678 42.6684 16.0035C41.9729 15.7385 40.9461 15.4073 39.0583 15.3411C37.0049 15.2417 36.3756 15.2417 31.1758 15.2417C25.976 15.2417 25.3468 15.2417 23.2934 15.3411C21.4055 15.4404 20.3457 15.7385 19.6833 16.0035C18.756 16.3678 18.1267 16.7652 17.4312 17.4607C16.7357 18.1562 16.3382 18.7855 15.9739 19.7129C15.709 20.4084 15.3778 21.4351 15.3115 23.3229C15.2122 25.3763 15.2122 26.0056 15.2122 31.2054C15.2122 36.4052 15.2122 37.0344 15.3115 39.0879C15.4109 40.9757 15.709 42.0355 15.9739 42.6979C16.3382 43.6253 16.7357 44.2545 17.4312 44.95C18.1267 45.6456 18.756 46.043 19.6833 46.4073C20.3788 46.6723 21.4055 47.0035 23.2934 47.0697C25.3468 47.1691 25.976 47.1691 31.1758 47.1691C36.3756 47.1691 37.0049 47.1691 39.0583 47.0697C40.9461 46.9703 42.006 46.6723 42.6684 46.4073C43.5957 46.043 44.225 45.6456 44.9205 44.95C45.616 44.2545 46.0134 43.6253 46.3778 42.6979C46.6427 42.0024 46.9739 40.9757 47.0402 39.0879C47.1395 37.0344 47.1395 36.4052 47.1395 31.2054C47.1395 26.0056 47.1395 25.3763 47.0402 23.3229C46.9408 21.4351 46.6427 20.3752 46.3778 19.7129ZM31.1427 41.2406C25.6117 41.2406 21.1075 36.7364 21.1075 31.2054C21.1075 25.6744 25.6117 21.1701 31.1427 21.1701C36.6737 21.1701 41.178 25.6744 41.178 31.2054C41.178 36.7364 36.6737 41.2406 31.1427 41.2406ZM41.5754 23.1242C40.2838 23.1242 39.2239 22.0644 39.2239 20.7727C39.2239 19.481 40.2838 18.4212 41.5754 18.4212C42.8671 18.4212 43.9269 19.481 43.9269 20.7727C43.9269 22.0644 42.8671 23.1242 41.5754 23.1242Z" fill="black"/>
<path d="M31.1448 37.6968C34.7299 37.6968 37.6362 34.7905 37.6362 31.2053C37.6362 27.6202 34.7299 24.7139 31.1448 24.7139C27.5596 24.7139 24.6533 27.6202 24.6533 31.2053C24.6533 34.7905 27.5596 37.6968 31.1448 37.6968Z" fill="black"/>
<path d="M31.1445 0.205078C14.0217 0.205078 0.144531 14.0822 0.144531 31.2051C0.144531 48.328 14.0217 62.2051 31.1445 62.2051C48.2674 62.2051 62.1445 48.328 62.1445 31.2051C62.1445 14.0822 48.2674 0.205078 31.1445 0.205078ZM50.5527 39.2532C50.4533 41.3397 50.1221 42.7638 49.6584 43.9893C49.1616 45.2809 48.4992 46.3739 47.4063 47.4337C46.3133 48.5267 45.2204 49.1891 43.9618 49.6859C42.7364 50.1827 41.3123 50.5139 39.2257 50.5801C37.1392 50.6794 36.4768 50.7126 31.1777 50.7126C25.8785 50.7126 25.2161 50.7126 23.1296 50.5801C21.043 50.4807 19.6189 50.1495 18.3935 49.6859C17.1018 49.1891 16.0089 48.5267 14.949 47.4337C13.8561 46.3408 13.1937 45.2478 12.6969 43.9893C12.2001 42.7638 11.8689 41.3397 11.8027 39.2532C11.7033 37.1666 11.6702 36.5042 11.6702 31.2051C11.6702 25.9059 11.6702 25.2435 11.8027 23.157C11.902 21.0705 12.2332 19.6463 12.6969 18.4209C13.1937 17.1292 13.8561 16.0363 14.949 14.9764C16.042 13.8835 17.1349 13.2211 18.3935 12.7243C19.6189 12.2275 21.043 11.8963 23.1296 11.8301C25.2161 11.7307 25.8785 11.6976 31.1777 11.6976C36.4768 11.6976 37.1392 11.6976 39.2257 11.8301C41.3123 11.9294 42.7364 12.2606 43.9618 12.7243C45.2535 13.2211 46.3465 13.8835 47.4063 14.9764C48.4992 16.0694 49.1616 17.1623 49.6584 18.4209C50.1552 19.6463 50.4864 21.0705 50.5527 23.157C50.652 25.2435 50.6851 25.9059 50.6851 31.2051C50.6851 36.5042 50.6851 37.1666 50.5527 39.2532Z" fill="black"/>
</svg>
