<svg width="63" height="63" viewBox="0 0 63 63" fill="none" xmlns="http://www.w3.org/2000/svg">
<g clip-path="url(#clip0_0_591)">
<path d="M33.413 31.9096C32.8192 31.1418 31.8978 30.7016 30.9253 30.7118C28.7959 30.7118 27.1783 32.5239 27.1783 34.7454C27.1783 36.967 28.7959 38.779 30.9253 38.779C31.8978 38.7892 32.809 38.349 33.413 37.5812V38.6152H35.1226V30.8552H33.413V31.8892V31.9096ZM31.2426 37.2331C29.881 37.2331 28.9494 36.1377 28.9494 34.7454C28.9494 33.3531 29.8606 32.2679 31.2426 32.2679C32.6247 32.2679 33.5358 33.3531 33.5358 34.7454C33.5358 36.1377 32.6042 37.2331 31.2426 37.2331Z" fill="black"/>
<path d="M23.543 28.0703H21.7104L21.7207 38.6047H26.6859V36.8746H23.543V28.0703Z" fill="black"/>
<path d="M31.4976 0.756836C14.5443 0.756836 0.805603 14.4956 0.805603 31.4489C0.805603 48.4022 14.5443 62.1409 31.4976 62.1409C48.4509 62.1409 62.1896 48.4022 62.1896 31.4489C62.1896 14.4956 48.4612 0.756836 31.4976 0.756836ZM51.6553 37.3866C51.6041 37.8882 51.2969 38.3182 50.8363 38.5332C50.2425 38.8608 34.5075 48.7502 32.3371 49.9583C32.0914 50.1016 31.8048 50.1835 31.5181 50.1835C31.2315 50.1835 30.955 50.1118 30.6991 49.9685C28.5697 48.74 12.7835 38.8403 12.1897 38.5434C11.7393 38.3285 11.4219 37.8985 11.3707 37.3969V23.5148C11.3605 22.9927 11.6164 22.5115 12.0464 22.2249L12.159 22.1635C13.6844 21.2114 18.7929 18.0992 19.6017 17.6487C19.7859 17.5361 20.0009 17.4747 20.2159 17.4747C20.4207 17.4747 20.6152 17.5259 20.7994 17.618C20.7994 17.618 27.9555 22.2761 29.0406 22.6958C29.8084 23.0439 30.6479 23.2281 31.4874 23.2077C32.4395 23.2281 33.3916 22.9927 34.231 22.5422C35.2957 21.9792 42.1344 17.6487 42.2061 17.6487C42.3801 17.5463 42.5746 17.4951 42.7794 17.4951C42.9943 17.4951 43.2093 17.5566 43.3936 17.6692C44.3252 18.1811 50.6622 22.0611 50.9284 22.2351C51.3788 22.5013 51.645 22.9927 51.6348 23.5046V37.3866H51.6553Z" fill="black"/>
<path d="M42.7165 32.2363V30.8645H36.5023V32.4206H40.5052L36.4409 37.2732V38.6245H42.8086V37.0787H38.6625L42.7165 32.2363Z" fill="black"/>
</g>
<defs>
<clipPath id="clip0_0_591">
<rect width="61.3943" height="61.3943" fill="white" transform="translate(0.805664 0.756836)"/>
</clipPath>
</defs>
</svg>
