<svg width="63" height="63" viewBox="0 0 63 63" fill="none" xmlns="http://www.w3.org/2000/svg">
<path d="M46.3762 19.712C46.0119 18.7847 45.6145 18.1554 44.919 17.4599C44.2235 16.7644 43.5943 16.367 42.667 16.0027C41.9715 15.7377 40.9448 15.4066 39.057 15.3403C37.0037 15.241 36.3744 15.241 31.1748 15.241C25.9752 15.241 25.346 15.241 23.2926 15.3403C21.4049 15.4397 20.3451 15.7377 19.6827 16.0027C18.7554 16.367 18.1261 16.7644 17.4306 17.4599C16.7351 18.1554 16.3377 18.7847 15.9734 19.712C15.7085 20.4075 15.3773 21.4341 15.311 23.3219C15.2117 25.3752 15.2117 26.0045 15.2117 31.2041C15.2117 36.4037 15.2117 37.033 15.311 39.0863C15.4104 40.9741 15.7085 42.0339 15.9734 42.6963C16.3377 43.6236 16.7351 44.2528 17.4306 44.9483C18.1261 45.6438 18.7554 46.0412 19.6827 46.4055C20.3782 46.6705 21.4049 47.0017 23.2926 47.0679C25.346 47.1673 25.9752 47.1673 31.1748 47.1673C36.3744 47.1673 37.0037 47.1673 39.057 47.0679C40.9448 46.9686 42.0046 46.6705 42.667 46.4055C43.5943 46.0412 44.2235 45.6438 44.919 44.9483C45.6145 44.2528 46.0119 43.6236 46.3762 42.6963C46.6412 42.0008 46.9724 40.9741 47.0386 39.0863C47.138 37.033 47.138 36.4037 47.138 31.2041C47.138 26.0045 47.138 25.3752 47.0386 23.3219C46.9393 21.4341 46.6412 20.3743 46.3762 19.712ZM31.1417 41.239C25.6109 41.239 21.1068 36.7349 21.1068 31.2041C21.1068 25.6733 25.6109 21.1692 31.1417 21.1692C36.6725 21.1692 41.1766 25.6733 41.1766 31.2041C41.1766 36.7349 36.6725 41.239 31.1417 41.239ZM41.5741 23.1232C40.2824 23.1232 39.2226 22.0634 39.2226 20.7718C39.2226 19.4801 40.2824 18.4203 41.5741 18.4203C42.8657 18.4203 43.9255 19.4801 43.9255 20.7718C43.9255 22.0634 42.8657 23.1232 41.5741 23.1232Z" fill="black"/>
<path d="M31.1431 37.6949C34.7281 37.6949 37.6343 34.7887 37.6343 31.2036C37.6343 27.6186 34.7281 24.7124 31.1431 24.7124C27.5581 24.7124 24.6519 27.6186 24.6519 31.2036C24.6519 34.7887 27.5581 37.6949 31.1431 37.6949Z" fill="black"/>
<path d="M31.1435 0.205078C14.0212 0.205078 0.144531 14.0818 0.144531 31.2041C0.144531 48.3264 14.0212 62.203 31.1435 62.203C48.2658 62.203 62.1425 48.3264 62.1425 31.2041C62.1425 14.0818 48.2658 0.205078 31.1435 0.205078ZM50.551 39.2519C50.4516 41.3383 50.1205 42.7624 49.6568 43.9878C49.16 45.2795 48.4976 46.3724 47.4047 47.4322C46.3118 48.5251 45.2189 49.1874 43.9604 49.6842C42.735 50.181 41.3109 50.5122 39.2244 50.5784C37.138 50.6778 36.4756 50.7109 31.1766 50.7109C25.8777 50.7109 25.2153 50.7109 23.1288 50.5784C21.0424 50.4791 19.6183 50.1479 18.3929 49.6842C17.1012 49.1874 16.0083 48.5251 14.9485 47.4322C13.8556 46.3392 13.1932 45.2463 12.6965 43.9878C12.1997 42.7624 11.8685 41.3383 11.8023 39.2519C11.7029 37.1654 11.6698 36.503 11.6698 31.2041C11.6698 25.9051 11.6698 25.2427 11.8023 23.1562C11.9016 21.0698 12.2328 19.6457 12.6965 18.4203C13.1932 17.1287 13.8556 16.0358 14.9485 14.976C16.0414 13.883 17.1344 13.2207 18.3929 12.7239C19.6183 12.2271 21.0424 11.8959 23.1288 11.8297C25.2153 11.7303 25.8777 11.6972 31.1766 11.6972C36.4756 11.6972 37.138 11.6972 39.2244 11.8297C41.3109 11.9291 42.735 12.2602 43.9604 12.7239C45.252 13.2207 46.3449 13.883 47.4047 14.976C48.4976 16.0689 49.16 17.1618 49.6568 18.4203C50.1536 19.6457 50.4848 21.0698 50.551 23.1562C50.6504 25.2427 50.6835 25.9051 50.6835 31.2041C50.6835 36.503 50.6835 37.1654 50.551 39.2519Z" fill="black"/>
<g clip-path="url(#clip0_0_410)">
<path d="M31.1389 0.205078C14.0183 0.205078 0.144043 14.0793 0.144043 31.1999C0.144043 48.3205 14.0183 62.1947 31.1389 62.1947C48.2594 62.1947 62.1337 48.3205 62.1337 31.1999C62.1337 14.0793 48.2698 0.205078 31.1389 0.205078Z" fill="black"/>
<path d="M31.1603 14.3176C20.3566 14.3176 11.5999 21.3271 11.5999 29.9805C11.5999 37.693 18.5577 44.1029 27.7279 45.4055C27.945 45.4365 28.1621 45.4675 28.3792 45.4882C31.5015 46.1395 28.7928 50.0475 29.8163 50.8436C30.9949 51.7637 39.8963 45.8087 45.3034 40.8049C46.0891 40.1535 46.8025 39.4402 47.4331 38.6855H47.4434C47.5985 38.5097 47.7122 38.3546 47.8053 38.2202C49.6559 35.8321 50.7311 33.0096 50.7311 29.9805C50.7311 21.3271 41.9744 14.3176 31.1706 14.3176H31.1603ZM24.7711 33.9608C24.7711 34.5191 24.3162 34.9843 23.7476 34.9843H19.7983C19.24 34.9843 18.7748 34.5294 18.7748 33.9608V26.393C18.7748 25.8347 19.2297 25.3695 19.7983 25.3695H19.881C20.4393 25.3695 20.9045 25.8244 20.9045 26.393V32.8546H23.7476C24.3059 32.8546 24.7711 33.3095 24.7711 33.8781V33.9608ZM27.7279 33.9608C27.7279 34.5191 27.273 34.9843 26.7044 34.9843H26.6217C26.0634 34.9843 25.5982 34.5294 25.5982 33.9608V26.393C25.5982 25.8347 26.0531 25.3695 26.6217 25.3695H26.7044C27.2627 25.3695 27.7279 25.8244 27.7279 26.393V33.9608ZM36.9705 33.9608C36.9705 34.2399 36.8568 34.488 36.6707 34.6741C36.6087 34.7465 36.526 34.8085 36.4226 34.8602C36.2779 34.9326 36.1228 34.9843 35.947 34.9843H35.8643C35.7299 34.9843 35.5955 34.9533 35.4818 34.9119C35.3267 34.8499 35.182 34.7568 35.0889 34.6224C35.0889 34.6224 35.0372 34.5604 35.0166 34.5191L31.305 29.4429V33.9711C31.305 34.5294 30.8501 34.9946 30.2815 34.9946H30.1988C29.6405 34.9946 29.1753 34.5397 29.1753 33.9711V26.4033C29.1753 25.8451 29.6302 25.3798 30.1988 25.3798H30.2815C30.6641 25.3798 30.9949 25.5866 31.1706 25.8968L34.8615 30.8386V26.393C34.8615 25.8347 35.3164 25.3695 35.885 25.3695H35.9677C36.526 25.3695 36.9912 25.8244 36.9912 26.393V33.9608H36.9705ZM44.2592 26.4964C44.2592 27.0547 43.8043 27.5199 43.2357 27.5199H40.3926V29.1327H43.2357C43.7939 29.1327 44.2592 29.5876 44.2592 30.1562V30.2389C44.2592 30.7972 43.8043 31.2624 43.2357 31.2624H40.3926V32.8752H43.2357C43.7939 32.8752 44.2592 33.3301 44.2592 33.8988V33.9815C44.2592 34.5397 43.8043 35.005 43.2357 35.005H39.2864C38.7281 35.005 38.2628 34.5501 38.2628 33.9815V26.4137C38.2628 25.8554 38.7177 25.3902 39.2864 25.3902H43.2357C43.7939 25.3902 44.2592 25.8451 44.2592 26.4137V26.4964Z" fill="#F4EDED"/>
</g>
<defs>
<clipPath id="clip0_0_410">
<rect width="62" height="62" fill="white" transform="translate(0.144531 0.205078)"/>
</clipPath>
</defs>
</svg>
