<svg width="38" height="64" viewBox="0 0 38 64" fill="none" xmlns="http://www.w3.org/2000/svg">
<g clip-path="url(#clip0_225_208)">
<path d="M26.1065 50.2504C32.1597 51.3481 36.3725 53.797 36.3725 56.647C36.3725 60.5209 28.5959 63.6559 19.0002 63.6559C9.40442 63.6559 1.61719 60.5315 1.61719 56.6576C1.61719 53.8076 5.82995 51.3587 11.8831 50.2609" fill="#00AC56"/>
<path d="M19 0.333496C8.5 0.333496 0 9.12628 0 19.9774C0 28.6646 3.42553 41.0252 19 59.3391C34.5745 41.0252 38 28.6646 38 19.9774C38 9.12628 29.4894 0.333496 19 0.333496ZM19 32.7602C12.5532 32.7602 7.28723 27.5457 7.28723 21.1385C7.28723 14.7313 12.5532 9.51683 19 9.51683C25.4468 9.51683 30.7128 14.7313 30.7128 21.1385C30.7128 27.5457 25.4574 32.7602 19 32.7602Z" fill="black"/>
</g>
<defs>
<clipPath id="clip0_225_208">
<rect width="38" height="63.3333" fill="white" transform="translate(0 0.333496)"/>
</clipPath>
</defs>
</svg>
