<svg width="222" height="49" viewBox="0 0 222 49" fill="none" xmlns="http://www.w3.org/2000/svg">
<g clip-path="url(#clip0_461_376)">
<path d="M217.009 13.429C198.773 23.5612 180.191 31.05 159.554 35.0878C149.674 37.0219 139.884 37.7911 129.718 37.7512C126.673 37.7314 123.263 37.0645 120.821 35.043C125.707 32.9531 130.989 30.6446 134.895 27.0438C138.801 23.443 140.773 17.7702 136.901 13.6663C132.612 9.11399 126.941 12.2063 122.735 15.4261C117.789 19.2071 114.58 23.6362 113.725 29.8596C113.623 30.5597 113.767 31.1937 113.787 31.8808C108.458 33.2786 103.135 34.253 97.6447 34.6325C92.7224 34.9651 87.9613 34.9643 82.9732 34.7079C78.0041 34.4728 73.0397 34.1572 68.0344 33.1735C65.0239 32.5707 62.0528 31.3045 59.6949 29.2275C60.4567 28.9702 61.3592 28.7213 62.1624 28.4463C67.147 26.7254 73.6313 24.8919 76.0388 20.0318C78.4462 15.1718 75.5462 10.3389 70.2994 9.68375C60.3675 8.4271 52.2074 15.7089 52.2479 25.8793C36.9555 29.6097 21.2035 29.197 5.79968 28.0183C0.738381 27.6365 -1.36157 32.414 3.9716 32.9734C21.072 34.7978 37.5435 34.648 54.1924 30.8369C57.2362 34.6091 61.1692 37.0017 65.887 38.0692C72.0794 39.4464 78.2335 39.7722 84.4739 40.0022C95.1432 40.3949 105.267 39.4437 115.592 36.8099C117.436 39.038 119.341 40.9267 122.237 41.7647C127.63 43.3566 133.285 43.2492 138.863 42.7538C168.147 40.1989 194.178 32.3058 219.575 17.7578C222.583 16.0403 219.993 11.7505 217.009 13.429ZM62.9087 15.9017C64.8135 14.744 66.719 14.2521 68.883 14.5019C70.4463 14.6756 72.2326 15.5082 71.6152 17.4082C70.999 19.2882 68.5904 20.436 66.8515 21.1799C64.016 22.3831 61.2209 23.2457 58.3206 24.1828C58.0118 24.2854 57.7043 24.368 57.3968 24.4506C57.585 20.6084 59.7463 17.8521 62.9276 15.923L62.9087 15.9017ZM123.716 21.3149C125.517 19.5256 132.481 13.363 133.523 18.5695C134.362 22.7754 128.451 25.4903 125.323 27.2006C123.154 28.383 121.084 29.2685 118.872 30.1658C119.333 26.4811 121.057 23.961 123.716 21.3149Z" fill="#0D0A01"/>
</g>
<defs>
<clipPath id="clip0_461_376">
<rect width="218.79" height="35.1829" fill="white" transform="translate(2.67285 0.213867) rotate(3.40475)"/>
</clipPath>
</defs>
</svg>
