<svg width="195" height="162" viewBox="0 0 195 162" fill="none" xmlns="http://www.w3.org/2000/svg">
<g style="mix-blend-mode:darken">
<path d="M177.411 0.879873C143.34 0.845908 109.273 0.809356 75.2023 0.775391H75.1892L60.9041 109.921C53.1332 106.19 43.0002 104.951 32.4908 107.125C12.1489 111.334 -1.86705 126.705 1.18489 141.461C4.23683 156.215 23.2042 164.766 43.5462 160.557C62.3752 156.662 75.7719 143.204 75.2415 129.521L86.0434 46.973H171.375L163.136 109.921C155.365 106.19 145.232 104.951 134.723 107.125C114.381 111.334 100.365 126.705 103.417 141.461C106.469 156.215 125.436 164.766 145.778 160.557C164.607 156.662 178.004 143.204 177.474 129.521L194.037 2.94911H194.027L194.296 0.898116C188.945 0.89289 183.593 0.88765 178.242 0.882424C177.965 0.882424 177.685 0.882424 177.408 0.882424L177.411 0.879873Z" fill="#00B5E7"/>
</g>
</svg>
