<svg width="14" height="23" viewBox="0 0 14 23" fill="none" xmlns="http://www.w3.org/2000/svg">
<path d="M0.733456 1.45746C0.547079 1.63812 0.399214 1.85271 0.298326 2.08895C0.197438 2.3252 0.145508 2.57844 0.145508 2.8342C0.145508 3.08996 0.197438 3.34321 0.298326 3.57945C0.399214 3.81569 0.547079 4.03028 0.733456 4.21095L8.53405 11.7879L0.733456 19.3649C0.547324 19.5457 0.399676 19.7603 0.298942 19.9966C0.198208 20.2328 0.146359 20.486 0.146359 20.7417C0.146359 20.9973 0.198208 21.2505 0.298942 21.4867C0.399676 21.723 0.547324 21.9376 0.733456 22.1184C0.919589 22.2992 1.14056 22.4426 1.38375 22.5405C1.62695 22.6383 1.8876 22.6887 2.15083 22.6887C2.41406 22.6887 2.67472 22.6383 2.91791 22.5405C3.1611 22.4426 3.38208 22.2992 3.56821 22.1184L12.7962 13.1549C12.9826 12.9742 13.1305 12.7597 13.2314 12.5234C13.3323 12.2872 13.3842 12.0339 13.3842 11.7782C13.3842 11.5224 13.3323 11.2692 13.2314 11.0329C13.1305 10.7967 12.9826 10.5821 12.7962 10.4014L3.56821 1.43793C2.80423 0.695853 1.51754 0.695853 0.733456 1.45746Z" fill="white"/>
</svg>
