<svg width="273" height="245" viewBox="0 0 273 245" fill="none" xmlns="http://www.w3.org/2000/svg">
<mask id="mask0_166_400" style="mask-type:alpha" maskUnits="userSpaceOnUse" x="2" y="2" width="269" height="241">
<path d="M239.511 127.884C248.443 125.656 257.355 124.609 266.31 128.214C270.601 129.942 272.582 131.455 269.44 136.145C246.433 170.501 223.515 204.92 200.737 239.429C197.556 244.247 195.453 242.744 192.247 239.61C185.338 232.859 182.759 224.284 181.696 215.117C152.558 220.404 139.002 211.376 132.081 182.649C108.699 186.409 95.1559 181.004 87.2676 164.758C83.0316 156.032 77.4296 152.199 68.2066 151.714C53.0627 150.917 39.0876 140.057 35.9433 125.317C34.5731 118.886 33.1743 115.631 26.0618 118.501C23.9809 119.342 21.3771 119.062 19.02 119.016C13.1551 118.898 6.17104 118.34 3.19782 113.767C0.181048 109.127 6.58301 105.066 9.17739 101.109C29.625 69.9354 50.5699 39.0894 70.8493 7.80996C75.6097 0.465873 78.3982 1.46757 83.3239 7.25156C88.9011 13.8015 90.3169 21.6494 91.9739 29.5071C121.714 24.7501 135.485 33.9177 141.185 62.4318C149.733 60.6256 158.259 59.1723 166.934 62.4771C178.71 66.9637 186.095 75.2438 188.545 87.3438C189.726 93.1906 190.486 95.4534 197.679 93.9666C219.264 89.5105 234.187 101.993 239.514 127.886L239.511 127.884Z" fill="#F96F52"/>
</mask>
<g mask="url(#mask0_166_400)">
<rect x="76.2002" y="-30.5552" width="203.826" height="289.784" fill="#F96F52"/>
</g>
</svg>
