<svg width="177" height="171" viewBox="0 0 177 171" fill="none" xmlns="http://www.w3.org/2000/svg">
<g style="mix-blend-mode:darken">
<path d="M176.959 72.339C176.959 50.186 159.001 32.229 136.845 32.229C133.934 32.229 131.102 32.5556 128.366 33.1461C125.045 14.3425 108.662 0.0458984 88.9026 0.0458984C69.1433 0.0458984 52.76 14.3425 49.4389 33.1461C46.7031 32.5582 43.8708 32.229 40.9599 32.229C18.8046 32.229 0.845703 50.186 0.845703 72.339C0.845703 87.5946 9.36392 100.857 21.9035 107.639C17.4119 114.119 14.765 121.97 14.765 130.451C14.765 152.604 32.7239 170.561 54.8792 170.561C69.2505 170.561 81.8188 162.981 88.9026 151.627C95.9863 162.981 108.555 170.561 122.926 170.561C145.081 170.561 163.04 152.604 163.04 130.451C163.04 121.97 160.393 114.119 155.901 107.639C168.438 100.857 176.957 87.5946 176.957 72.339H176.959Z" fill="#FF531B"/>
</g>
</svg>
