<svg width="71" height="70" viewBox="0 0 71 70" fill="none" xmlns="http://www.w3.org/2000/svg">
<path d="M35.2665 0C16.0429 0 0.458984 15.584 0.458984 34.8075C0.458984 54.0311 16.0429 69.615 35.2665 69.615C54.49 69.615 70.074 54.0311 70.074 34.8075C70.074 15.584 54.49 0 35.2665 0ZM52.2741 38.6308C51.3135 38.9982 50.3453 39.1015 49.1971 38.9446C48.0528 38.8757 46.9047 38.6308 45.9326 38.382C45.0486 38.1333 44.4324 38.0529 43.9923 38.0606C43.2881 38.072 42.8518 38.3438 42.5992 38.9637C42.3466 39.5837 42.3543 40.1119 42.626 40.6362C43.2536 41.2409 43.8775 41.8494 44.5893 42.278C45.2131 42.7066 45.8369 43.2271 46.3727 43.7438C46.9085 44.2643 47.2721 44.8728 47.4596 45.6612C47.8347 47.0619 47.7658 48.21 47.253 49.1859C46.7401 50.1618 45.9594 50.8813 44.9988 51.3368C43.6899 51.9759 42.2854 52.1749 40.7813 51.7578C39.5414 51.3368 38.7377 50.6479 38.3741 49.7715C37.9187 48.8989 37.7273 47.9345 37.624 46.8782C37.5206 45.9099 37.2413 44.9493 36.9619 43.9849C36.6021 43.4644 36.0702 43.208 35.4502 43.1315C34.834 43.0549 34.3097 43.3266 34.0533 43.9466C33.7203 45.0067 33.5596 46.0668 33.4869 47.0351C33.418 48.1794 33.1692 49.1515 32.8324 49.9513C32.4076 50.8392 31.5389 51.5587 30.1382 52.0218C28.3854 52.4926 26.7091 52.2553 25.1974 51.222C24.0416 50.4489 23.4025 49.14 23.3718 47.2915C23.3527 46.1472 23.6015 45.1751 24.1181 44.5513C24.5468 43.9275 25.1553 43.3917 25.9398 42.8482C26.6364 42.3966 27.3291 41.681 28.1098 40.8773C28.37 40.6094 28.5384 40.1655 28.4428 39.7292C28.3471 39.2891 28.0792 38.9446 27.7194 38.6844C27.3635 38.4241 26.9196 38.2557 26.3953 38.3552C25.6069 38.6308 24.9065 38.9063 24.2062 39.1819C23.2494 39.8134 22.285 40.0927 21.4047 40.1081C19.2041 40.1425 17.7843 39.3771 16.9653 37.8041C16.1463 36.2312 16.0315 34.6506 16.6247 33.0547C17.3863 31.1947 18.5153 30.2073 19.8318 30.0963C21.1521 29.9853 22.4763 30.2303 23.8043 30.7355C24.2483 30.9039 24.6884 31.0723 25.1323 31.1526C25.4844 31.2368 25.7523 31.3172 26.0164 31.4014L26.1924 31.4856L26.2804 31.5736H26.3685C27.1607 31.6463 27.685 31.3746 28.0294 30.8388C28.3739 30.3068 28.3624 29.6907 28.0026 29.0783C27.375 28.2976 26.6593 27.6929 25.8595 27.1763C25.0596 26.7476 24.4358 26.1429 23.8962 25.5344C23.2723 24.9298 22.9891 23.9653 22.97 22.733C22.947 21.3246 23.456 20.0846 24.4052 19.1011C25.3581 18.1175 26.4948 17.5702 27.8993 17.5473C29.3077 17.5243 30.4596 18.0333 31.4432 18.9863C32.067 19.5029 32.4306 20.0272 32.6143 20.6396C32.7138 21.2557 32.8095 21.8681 32.909 22.4842C32.9205 23.2765 33.1118 24.2409 33.483 25.2015C33.8505 26.0741 34.3862 26.5065 35.1785 26.495C35.8826 26.5716 36.4031 26.1238 36.7437 25.2359C36.9083 24.4399 36.9849 23.7357 37.0576 22.9435C37.1341 22.1513 37.2106 21.4433 37.4594 20.7353C37.624 20.1153 37.9646 19.4073 38.5731 18.7796C40.3068 17.2564 42.1514 16.9617 44.1875 17.7195C46.2273 18.5653 47.2185 20.1344 47.2568 22.335C47.2759 23.5673 47.031 24.5394 46.4225 25.167C45.8178 25.7947 45.2093 26.4185 44.4286 26.962C43.732 27.4136 43.0393 28.0412 42.4346 28.7568C42.006 29.3807 42.0137 29.9088 42.3772 30.5173C42.649 31.1297 43.1848 31.3861 43.9731 31.2828C44.4094 31.1871 44.9376 31.0034 45.5499 30.9039C46.6904 30.6207 47.8309 30.3375 48.9713 30.1423C50.1118 29.9471 51.0839 30.0198 51.968 30.4446C53.5639 31.21 54.379 32.6069 54.4977 34.4516C54.5283 36.3001 53.759 37.7199 52.278 38.627L52.2741 38.6308Z" fill="#FF531B"/>
</svg>
