<svg width="168" height="167" viewBox="0 0 168 167" fill="none" xmlns="http://www.w3.org/2000/svg">
<path d="M84.1333 35.5924C84.1333 -16.1662 43.9254 -7.61988 65.2041 39.6252C43.9254 -7.61988 10.6857 16.5501 49.5588 51.0024C10.6857 16.5501 -9.87211 52.1508 39.8939 67.7479C-9.87211 52.1508 -14.1706 93.0395 37.8648 86.977C-14.1706 93.0128 -1.46209 132.112 43.8453 105.378C-1.46209 132.112 26.0374 162.665 56.794 119.747C26.0374 162.665 63.5755 179.384 74.4685 127.625C63.6022 179.384 104.691 179.384 93.7982 127.625C104.664 179.384 142.229 162.665 111.473 119.747C142.229 162.665 169.729 132.112 124.421 105.378C169.729 132.112 182.437 93.0128 130.402 86.977C182.437 93.0128 178.139 52.1241 128.373 67.7479C178.139 52.1508 157.581 16.5501 118.708 51.0024C157.581 16.5501 124.341 -7.61988 103.063 39.6252C124.341 -7.61988 84.1333 -16.1662 84.1333 35.5924Z" fill="#FABEFF"/>
</svg>
