<svg width="365" height="166" viewBox="0 0 365 166" fill="none" xmlns="http://www.w3.org/2000/svg">
<path d="M68.0684 1.29187C103.287 8.32464 123.598 35.5423 120.946 67.6308C120.001 79.0589 121.063 88.9427 132.219 94.9504C146.023 102.38 158.728 94.3446 164.106 75.2262C171.281 49.7264 188.063 34.1265 214.174 30.1247C239.707 26.2098 259.976 36.1068 274.356 57.411C282.35 69.2535 285.652 82.6784 283.544 96.8603C281.556 110.232 285.325 120.758 298.521 124.681C310.97 128.381 320.335 122.53 324.762 110.209C328.722 99.1955 336.515 105.966 342.077 106.791C368.057 110.637 369.934 115.65 355.024 137.973C339.691 160.93 311.341 170.691 284.961 162.096C259.113 153.676 241.784 128.141 243.734 100.699C244.345 92.1281 245.743 83.5966 239.397 76.4871C234.156 70.6121 227.789 67.4647 219.551 69.1715C207.968 71.571 203.622 79.6794 200.821 90.2594C190.17 130.501 146.414 149.395 111.536 128.741C90.015 115.999 79.3008 96.4482 81.3174 71.505C82.4138 57.9412 81.3173 46.2396 67.0368 41.7162C53.798 37.5246 44.5053 43.7997 39.8948 56.8705C36.7116 65.9019 29.9836 60.591 25.1237 59.8517C-3.63381 55.494 -6.35924 48.4521 12.1203 25.0364C27.6018 5.41936 48.1793 -1.98371 68.0684 1.29187Z" fill="#F7BBFF"/>
</svg>
