<svg width="156" height="261" viewBox="0 0 156 261" fill="none" xmlns="http://www.w3.org/2000/svg">
<path d="M119.127 57.6778C108.822 -22.7157 49.5514 -3.61488 91.235 66.6662C49.5514 -3.61488 3.93172 38.7273 69.7689 86.5906C3.93508 38.727 -20.1442 96.9926 58.4382 114.009C-20.1442 96.9926 -18.5219 161.105 59.2035 144.182C-18.5185 161.105 8.52486 219.984 71.9297 171.887C8.52441 219.981 56.3152 263.44 94.4181 192.34C56.3156 263.443 116.587 283.969 122.782 201.999C116.587 283.969 178.92 278.013 152.114 199.196C178.92 278.013 232.534 246.607 177.345 184.417C232.534 246.607 268.162 195.178 194.109 160.214C268.161 195.175 279.641 132.619 199.51 130.777C279.638 132.619 264.986 69.751 192.615 101.19C264.986 69.751 226.732 17.4408 174.614 76.5736C226.732 17.4408 171.492 -15.2686 148.618 61.1838C171.492 -15.2652 108.819 -22.712 119.124 57.6781L119.127 57.6778Z" fill="#FF7DB9"/>
</svg>
