<svg width="71" height="70" viewBox="0 0 71 70" fill="none" xmlns="http://www.w3.org/2000/svg">
<path d="M35.4227 0C16.1992 0 0.615234 15.584 0.615234 34.8075C0.615234 54.0311 16.1992 69.615 35.4227 69.615C54.6463 69.615 70.2302 54.0311 70.2302 34.8075C70.2302 15.584 54.6463 0 35.4227 0ZM52.4304 38.6308C51.4698 38.9982 50.5015 39.1015 49.3534 38.9446C48.2091 38.8757 47.061 38.6308 46.0889 38.382C45.2048 38.1333 44.5886 38.0529 44.1485 38.0606C43.4443 38.072 43.008 38.3438 42.7555 38.9637C42.5029 39.5837 42.5105 40.1119 42.7822 40.6362C43.4099 41.2409 44.0337 41.8494 44.7456 42.278C45.3694 42.7066 45.9932 43.2271 46.529 43.7438C47.0648 44.2643 47.4284 44.8728 47.6159 45.6612C47.9909 47.0619 47.9221 48.21 47.4092 49.1859C46.8964 50.1618 46.1157 50.8813 45.1551 51.3368C43.8462 51.9759 42.4416 52.1749 40.9376 51.7578C39.6976 51.3368 38.8939 50.6479 38.5303 49.7715C38.0749 48.8989 37.8836 47.9345 37.7802 46.8782C37.6769 45.9099 37.3975 44.9493 37.1181 43.9849C36.7584 43.4644 36.2264 43.208 35.6064 43.1315C34.9903 43.0549 34.466 43.3266 34.2095 43.9466C33.8766 45.0067 33.7158 46.0668 33.6431 47.0351C33.5742 48.1794 33.3255 49.1515 32.9887 49.9513C32.5639 50.8392 31.6951 51.5587 30.2944 52.0218C28.5416 52.4926 26.8653 52.2553 25.3536 51.222C24.1978 50.4489 23.5587 49.14 23.5281 47.2915C23.509 46.1472 23.7577 45.1751 24.2744 44.5513C24.703 43.9275 25.3115 43.3917 26.0961 42.8482C26.7926 42.3966 27.4853 41.681 28.2661 40.8773C28.5263 40.6094 28.6947 40.1655 28.599 39.7292C28.5033 39.2891 28.2354 38.9446 27.8757 38.6844C27.5198 38.4241 27.0758 38.2557 26.5515 38.3552C25.7631 38.6308 25.0628 38.9063 24.3624 39.1819C23.4056 39.8134 22.4412 40.0927 21.561 40.1081C19.3604 40.1425 17.9405 39.3771 17.1215 37.8041C16.3025 36.2312 16.1877 34.6506 16.7809 33.0547C17.5425 31.1947 18.6715 30.2073 19.988 30.0963C21.3084 29.9853 22.6326 30.2303 23.9606 30.7355C24.4045 30.9039 24.8446 31.0723 25.2886 31.1526C25.6407 31.2368 25.9086 31.3172 26.1726 31.4014L26.3487 31.4856L26.4367 31.5736H26.5247C27.3169 31.6463 27.8412 31.3746 28.1857 30.8388C28.5301 30.3068 28.5186 29.6907 28.1589 29.0783C27.5312 28.2976 26.8156 27.6929 26.0157 27.1763C25.2158 26.7476 24.592 26.1429 24.0524 25.5344C23.4286 24.9298 23.1454 23.9653 23.1263 22.733C23.1033 21.3246 23.6123 20.0846 24.5614 19.1011C25.5144 18.1175 26.651 17.5702 28.0556 17.5473C29.4639 17.5243 30.6159 18.0333 31.5995 18.9863C32.2233 19.5029 32.5868 20.0272 32.7705 20.6396C32.8701 21.2557 32.9657 21.8681 33.0652 22.4842C33.0767 23.2765 33.2681 24.2409 33.6393 25.2015C34.0067 26.0741 34.5425 26.5065 35.3347 26.495C36.0389 26.5716 36.5594 26.1238 36.9 25.2359C37.0646 24.4399 37.1411 23.7357 37.2138 22.9435C37.2904 22.1513 37.3669 21.4433 37.6157 20.7353C37.7802 20.1153 38.1208 19.4073 38.7293 18.7796C40.463 17.2564 42.3077 16.9617 44.3437 17.7195C46.3836 18.5653 47.3748 20.1344 47.413 22.335C47.4322 23.5673 47.1872 24.5394 46.5787 25.167C45.9741 25.7947 45.3655 26.4185 44.5848 26.962C43.8883 27.4136 43.1956 28.0412 42.5909 28.7568C42.1623 29.3807 42.1699 29.9088 42.5335 30.5173C42.8052 31.1297 43.341 31.3861 44.1294 31.2828C44.5657 31.1871 45.0938 31.0034 45.7062 30.9039C46.8466 30.6207 47.9871 30.3375 49.1276 30.1423C50.2681 29.9471 51.2401 30.0198 52.1242 30.4446C53.7201 31.21 54.5353 32.6069 54.6539 34.4516C54.6845 36.3001 53.9153 37.7199 52.4342 38.627L52.4304 38.6308Z" fill="#FF008A"/>
</svg>
