<svg width="200" height="239" viewBox="0 0 200 239" fill="none" xmlns="http://www.w3.org/2000/svg">
<path d="M-7.84004 44.6863C4.39333 31.0421 16.8459 17.5839 28.7415 3.65087C33.0024 -1.34016 35.5291 -0.439761 39.1314 3.93053C45.7437 11.954 48.5338 21.2736 49.7856 31.3616C52.859 56.1472 57.0041 60.1901 82.1458 63.6462C110.858 67.5942 124.433 79.755 131.209 107.594C137.178 132.12 141.95 136.039 166.761 136.322C177.262 136.442 187.17 138.269 195.979 144.465C199.76 147.125 201.199 149.271 197.389 153.473C172.556 180.865 147.861 208.384 123.343 236.058C119.226 240.705 117.078 239.378 113.707 235.38C106.743 227.119 104 217.484 102.746 207.078C99.9021 183.481 95.1654 178.735 71.7961 175.514C41.2791 171.309 28.4262 159.803 21.0676 130.101C15.3648 107.078 10.2565 102.982 -13.5826 102.747C-23.3742 102.649 -32.6169 101.113 -41.3005 96.0263C-47.3634 92.4747 -49.6839 89.3168 -43.2534 84.1761C-43.0052 83.9776 -42.8205 83.7011 -42.6059 83.4618C-31.0161 70.5354 -19.4263 57.6089 -7.83655 44.6824L-7.84004 44.6863Z" fill="#FABEFF"/>
</svg>
