<svg width="272" height="193" viewBox="0 0 272 193" fill="none" xmlns="http://www.w3.org/2000/svg">
<path d="M15.5364 34.5861C19.6441 25.599 24.049 16.7357 27.758 7.58455C30.1075 1.78851 33.8821 0.39011 40.2074 1.14136C61.8671 3.72197 77.2761 14.7598 88.9922 32.4731C107.294 60.1456 124.228 67.0036 157.597 61.6521C180.467 57.9826 203.21 67.3757 215.433 87.2716C227.531 106.961 242.995 121.042 267.211 123.867C272.809 124.52 272.244 127.365 270.656 130.829C261.974 149.795 253.245 168.742 244.644 187.744C241.875 193.86 236.58 193.242 231.026 192.421C210.389 189.365 196.553 177.285 186.63 160.334C173.521 137.939 153.336 127.845 127.601 130.697C116.747 131.9 106.352 134.283 94.61 131.27C79.7947 127.469 68.8837 119.411 61.31 107.81C47.8746 87.2288 32.4764 70.8253 5.23782 70.5156C-1.06166 70.4456 1.00929 66.5213 2.33378 63.5549C6.65951 53.8642 11.1286 44.2362 15.5402 34.5848L15.5364 34.5861Z" fill="#F4C9F6"/>
</svg>
