<svg width="262" height="137" viewBox="0 0 262 137" fill="none" xmlns="http://www.w3.org/2000/svg">
<g clip-path="url(#clip0_227_228)">
<path d="M44.2103 24.0806C5.14352 43.4533 -10.8613 90.92 8.45446 130.102L51.5539 108.718C44.0041 93.4134 50.2593 74.8794 65.5194 67.3073C80.7681 59.7466 99.2589 66.0089 106.809 81.314L149.908 59.9305C130.593 20.7599 83.2656 4.70787 44.2103 24.0806Z" fill="#F7BBFF"/>
<path d="M125.472 60.5279V119.933C125.472 141.512 251.975 141.512 251.975 119.933V60.5279C251.975 38.949 125.472 38.949 125.472 60.5279Z" fill="#00AC56"/>
<path d="M224.892 16.1059C224.892 -6.39218 207.467 -2.68079 216.689 17.8525C207.467 -2.68079 193.054 7.82139 209.907 22.7933C193.054 7.82139 184.141 23.2989 205.714 30.0782C184.141 23.2989 182.285 41.063 204.843 38.4432C182.285 41.0745 187.796 58.0572 207.432 46.4405C187.784 58.0687 199.711 71.34 213.046 52.6912C199.711 71.34 215.99 78.6134 220.699 56.1153C215.979 78.6134 233.794 78.6134 229.085 56.1153C233.805 78.6134 250.074 71.3515 236.738 52.6912C250.074 71.34 261.988 58.0687 242.352 46.4405C262 58.0687 267.499 41.0745 244.941 38.4432C267.499 41.0745 265.632 23.2989 244.07 30.0782C265.643 23.2989 256.73 7.82139 239.877 22.7933C256.73 7.82139 242.318 -2.68079 233.095 17.8525C242.318 -2.68079 224.892 -6.39218 224.892 16.1059Z" fill="#FFD900"/>
</g>
<defs>
<clipPath id="clip0_227_228">
<rect width="260.808" height="135.333" fill="white" transform="translate(0.262695 0.777832)"/>
</clipPath>
</defs>
</svg>
