<svg width="56" height="78" viewBox="0 0 56 78" fill="none" xmlns="http://www.w3.org/2000/svg">
<path d="M26.0954 9.41424C26.2382 6.5982 26.7254 3.89346 28.5795 1.59022C29.4684 0.486627 30.0881 0.0408138 31.1826 1.37946C39.2012 11.1826 47.2463 20.9649 55.3298 30.7147C56.4585 32.076 55.8306 32.5585 54.6267 33.2188C52.0326 34.6419 49.2899 34.6339 46.509 34.1288C45.4623 43.1388 41.6089 46.3071 32.5738 45.7762C31.5927 52.9632 28.8021 56.4507 23.3386 57.3151C20.4039 57.7791 18.7814 59.0793 17.8176 61.739C16.2349 66.106 11.8073 69.2339 7.20765 68.8423C5.20105 68.6709 4.12236 68.7908 4.32998 71.1309C4.39083 71.8156 4.07698 72.5537 3.85339 73.2404C3.29637 74.9486 2.51062 76.9456 0.905634 77.4095C-0.722751 77.8803 -1.34277 75.6423 -2.27105 74.5295C-9.58508 65.7601 -16.7588 56.874 -24.1187 48.1444C-25.8469 46.0951 -25.3049 45.3672 -23.171 44.4389C-20.7547 43.388 -18.3287 43.6723 -15.8783 43.8867C-14.6229 34.7474 -10.7095 31.5286 -1.8454 32.3982C-1.61322 29.7324 -1.27953 27.1043 0.461736 24.8566C2.82567 21.8053 5.91012 20.3786 9.67434 20.7387C11.493 20.9134 12.2239 20.8922 12.4289 18.6519C13.046 11.9292 18.0334 8.66791 26.096 9.41373L26.0954 9.41424Z" fill="#F7BBFF"/>
</svg>
