<svg width="269" height="126" viewBox="0 0 269 126" fill="none" xmlns="http://www.w3.org/2000/svg">
<path d="M25.3769 63.7962C50.8129 52.2291 76.0095 60.1841 88.9197 81.6524C93.5174 89.2982 98.6808 95.0565 108.456 93.7797C120.549 92.1967 124.92 81.3478 119.626 66.8312C112.566 47.4679 116.073 29.9892 130.742 15.5942C145.086 1.51645 162.383 -1.44669 181.147 5.47006C191.578 9.31433 199.764 16.291 204.879 26.2045C209.702 35.5518 216.866 40.4851 226.982 36.9648C236.525 33.6429 239.779 25.6912 236.975 15.8988C234.469 7.14438 242.468 7.87747 246.355 5.87028C264.508 -3.50949 267.972 -1.197 268.703 19.6755C269.455 41.1414 255.99 60.1908 235.426 66.7542C215.277 73.1857 192.728 64.9382 181.486 46.7228C177.976 41.0331 174.981 35.0103 167.742 33.4054C161.762 32.0779 156.311 32.9846 151.885 37.8066C145.661 44.5866 146.602 51.6822 149.643 59.6362C161.208 89.8884 142.166 121.707 110.754 124.518C91.373 126.254 75.7209 118.778 65.6569 102.111C60.1841 93.0476 54.173 86.1569 43.0994 89.7914C32.8345 93.162 29.8187 101.348 32.8484 111.697C34.9434 118.847 28.2809 118.552 24.8761 120.294C4.73617 130.613 -0.185527 127.405 0.840472 104.22C1.69996 84.7957 11.3289 70.768 25.3769 63.7962Z" fill="#F7BBFF"/>
</svg>
