<svg width="74" height="61" viewBox="0 0 74 61" fill="none" xmlns="http://www.w3.org/2000/svg">
<path d="M42.3807 38.5015C42.3807 33.5864 38.4157 29.6023 33.5242 29.6023C32.8816 29.6023 32.2562 29.6748 31.6522 29.8058C30.919 25.6339 27.3019 22.4619 22.9394 22.4619C18.5769 22.4619 14.9598 25.6339 14.2265 29.8058C13.6225 29.6754 12.9972 29.6023 12.3545 29.6023C7.46304 29.6023 3.49805 33.5864 3.49805 38.5015C3.49805 41.8862 5.37871 44.8286 8.14723 46.3335C7.15555 47.771 6.57116 49.5129 6.57116 51.3946C6.57116 56.3096 10.5362 60.2937 15.4276 60.2937C18.6006 60.2937 21.3754 58.6121 22.9394 56.0928C24.5033 58.6121 27.2782 60.2937 30.4511 60.2937C35.3426 60.2937 39.3076 56.3096 39.3076 51.3946C39.3076 49.5129 38.7232 47.771 37.7315 46.3335C40.4994 44.8286 42.3801 41.8862 42.3801 38.5015H42.3807Z" fill="black"/>
<path d="M39.4979 35.7324C39.4979 30.8174 35.5329 26.8333 30.6414 26.8333C29.9988 26.8333 29.3734 26.9057 28.7694 27.0368C28.0362 22.8648 24.419 19.6929 20.0566 19.6929C15.6941 19.6929 12.077 22.8648 11.3437 27.0368C10.7397 26.9063 10.1144 26.8333 9.47172 26.8333C4.58023 26.8333 0.615234 30.8174 0.615234 35.7324C0.615234 39.1171 2.4959 42.0596 5.26442 43.5644C4.27273 45.002 3.68835 46.7439 3.68835 48.6255C3.68835 53.5406 7.65335 57.5247 12.5448 57.5247C15.7178 57.5247 18.4926 55.843 20.0566 53.3238C21.6205 55.843 24.3954 57.5247 27.5683 57.5247C32.4598 57.5247 36.4248 53.5406 36.4248 48.6255C36.4248 46.7439 35.8404 45.002 34.8487 43.5644C37.6166 42.0596 39.4973 39.1171 39.4973 35.7324H39.4979Z" fill="url(#paint0_linear_2950_9283)"/>
<path d="M19.1835 41.047C19.1835 40.3335 19.3413 39.7434 19.6569 39.2768C19.9862 38.8103 20.4597 38.2957 21.0772 37.7331C21.53 37.3214 21.8593 36.9783 22.0652 36.7039C22.2847 36.4157 22.3945 36.0932 22.3945 35.7364C22.3945 35.2287 22.1887 34.8308 21.777 34.5426C21.3791 34.2407 20.8439 34.0898 20.1715 34.0898C19.5265 34.0898 18.9502 34.227 18.4425 34.5014C17.9485 34.7622 17.5299 35.1327 17.1869 35.6129L14.6963 34.1515C15.2726 33.2733 16.0479 32.594 17.0222 32.1137C18.0102 31.6335 19.1766 31.3933 20.5214 31.3933C22.0995 31.3933 23.362 31.7295 24.3088 32.4019C25.2694 33.0743 25.7496 34.0074 25.7496 35.2013C25.7496 35.7639 25.6536 36.2579 25.4615 36.6833C25.2831 37.1087 25.0567 37.4723 24.7822 37.7742C24.5215 38.0624 24.1784 38.3986 23.753 38.7828C23.2453 39.2357 22.8748 39.6199 22.6415 39.9355C22.4082 40.2374 22.2916 40.6079 22.2916 41.047H19.1835ZM20.7478 46.2135C20.1852 46.2135 19.7118 46.0351 19.3276 45.6783C18.9571 45.3078 18.7718 44.8618 18.7718 44.3404C18.7718 43.8189 18.9571 43.3867 19.3276 43.0436C19.6981 42.6868 20.1715 42.5085 20.7478 42.5085C21.3242 42.5085 21.7976 42.6868 22.1681 43.0436C22.5386 43.3867 22.7239 43.8189 22.7239 44.3404C22.7239 44.8618 22.5317 45.3078 22.1475 45.6783C21.777 46.0351 21.3105 46.2135 20.7478 46.2135Z" fill="black"/>
<path d="M62.3591 29.7836C60.4985 24.5479 57.0203 21.3505 51.498 19.6675C56.9036 18.0792 60.3666 14.915 62.3478 9.84668C64.3729 14.8953 67.7805 18.1126 73.3676 19.6731C67.6047 21.2403 64.1724 24.5482 62.3588 29.7836H62.3591Z" fill="#F794FF"/>
<path d="M51.3852 8.82034C50.6137 6.5952 49.1715 5.23631 46.8818 4.52101C49.1232 3.84598 50.559 2.5012 51.3805 0.347168C52.2202 2.49283 53.6331 3.86021 55.9497 4.5234C53.5602 5.18946 52.1371 6.59532 51.3851 8.82034H51.3852Z" fill="#FBCE08"/>
<defs>
<linearGradient id="paint0_linear_2950_9283" x1="1.65189" y1="36.7698" x2="36.7288" y2="36.3083" gradientUnits="userSpaceOnUse">
<stop stop-color="#00B5E7"/>
<stop offset="1" stop-color="#FBCE08"/>
</linearGradient>
</defs>
</svg>
