<svg width="14" height="23" viewBox="0 0 14 23" fill="none" xmlns="http://www.w3.org/2000/svg">
<path d="M12.8642 1.45746C13.0506 1.63812 13.1984 1.85271 13.2993 2.08895C13.4002 2.3252 13.4521 2.57844 13.4521 2.8342C13.4521 3.08996 13.4002 3.34321 13.2993 3.57945C13.1984 3.81569 13.0506 4.03028 12.8642 4.21095L5.0636 11.7879L12.8642 19.3649C13.0503 19.5457 13.198 19.7603 13.2987 19.9966C13.3994 20.2328 13.4513 20.486 13.4513 20.7417C13.4513 20.9973 13.3994 21.2505 13.2987 21.4867C13.198 21.723 13.0503 21.9376 12.8642 22.1184C12.6781 22.2992 12.4571 22.4426 12.2139 22.5405C11.9707 22.6383 11.7101 22.6887 11.4468 22.6887C11.1836 22.6887 10.9229 22.6383 10.6797 22.5405C10.4366 22.4426 10.2156 22.2992 10.0294 22.1184L0.801422 13.1549C0.615045 12.9742 0.46718 12.7597 0.366292 12.5234C0.265404 12.2872 0.213474 12.0339 0.213474 11.7782C0.213474 11.5224 0.265404 11.2692 0.366292 11.0329C0.46718 10.7967 0.615045 10.5821 0.801422 10.4014L10.0294 1.43793C10.7934 0.695853 12.0801 0.695853 12.8642 1.45746Z" fill="white"/>
</svg>
