<svg width="225" height="225" viewBox="0 0 225 225" fill="none" xmlns="http://www.w3.org/2000/svg">
<path d="M217.305 95.1298H153.408L198.588 49.9546C201.376 47.1673 201.376 42.6506 198.588 39.8658L184.681 25.9604C181.894 23.173 177.376 23.173 174.591 25.9604L129.411 71.1355V7.24552C129.411 3.30611 126.216 0.111206 122.277 0.111206H102.609C98.669 0.111206 95.4737 3.30611 95.4737 7.24552V71.1355L50.294 25.9604C47.5063 23.173 42.9891 23.173 40.204 25.9604L26.2971 39.8658C23.5095 42.6532 23.5095 47.1699 26.2971 49.9546L71.4769 95.1298H7.58036C3.64055 95.1298 0.445312 98.3247 0.445312 102.264V121.93C0.445312 125.869 3.64055 129.064 7.58036 129.064H71.4769L26.2971 174.239C23.5095 177.027 23.5095 181.543 26.2971 184.328L40.204 198.234C42.9917 201.021 47.5089 201.021 50.294 198.234L95.4737 153.058V216.948C95.4737 220.888 98.669 224.083 102.609 224.083H122.277C126.216 224.083 129.411 220.888 129.411 216.948V153.058L174.591 198.234C177.379 201.021 181.896 201.021 184.681 198.234L198.588 184.328C201.376 181.541 201.376 177.024 198.588 174.239L153.408 129.064H217.305C221.245 129.064 224.44 125.869 224.44 121.93V102.264C224.44 98.3247 221.245 95.1298 217.305 95.1298Z" fill="#9747FF"/>
</svg>
