<svg width="70" height="70" viewBox="0 0 70 70" fill="none" xmlns="http://www.w3.org/2000/svg">
<path d="M35.038 0C15.8144 0 0.230469 15.584 0.230469 34.8075C0.230469 54.0311 15.8144 69.615 35.038 69.615C54.2615 69.615 69.8455 54.0311 69.8455 34.8075C69.8455 15.584 54.2615 0 35.038 0ZM52.0456 38.6308C51.085 38.9982 50.1168 39.1015 48.9686 38.9446C47.8243 38.8757 46.6762 38.6308 45.7041 38.382C44.82 38.1333 44.2039 38.0529 43.7638 38.0606C43.0596 38.072 42.6233 38.3438 42.3707 38.9637C42.1181 39.5837 42.1258 40.1119 42.3975 40.6362C43.0251 41.2409 43.6489 41.8494 44.3608 42.278C44.9846 42.7066 45.6084 43.2271 46.1442 43.7438C46.68 44.2643 47.0436 44.8728 47.2311 45.6612C47.6062 47.0619 47.5373 48.21 47.0245 49.1859C46.5116 50.1618 45.7309 50.8813 44.7703 51.3368C43.4614 51.9759 42.0569 52.1749 40.5528 51.7578C39.3128 51.3368 38.5092 50.6479 38.1456 49.7715C37.6902 48.8989 37.4988 47.9345 37.3955 46.8782C37.2921 45.9099 37.0128 44.9493 36.7334 43.9849C36.3736 43.4644 35.8417 43.208 35.2217 43.1315C34.6055 43.0549 34.0812 43.3266 33.8248 43.9466C33.4918 45.0067 33.3311 46.0668 33.2584 47.0351C33.1895 48.1794 32.9407 49.1515 32.6039 49.9513C32.1791 50.8392 31.3104 51.5587 29.9096 52.0218C28.1568 52.4926 26.4806 52.2553 24.9689 51.222C23.8131 50.4489 23.1739 49.14 23.1433 47.2915C23.1242 46.1472 23.373 45.1751 23.8896 44.5513C24.3183 43.9275 24.9268 43.3917 25.7113 42.8482C26.4079 42.3966 27.1006 41.681 27.8813 40.8773C28.1415 40.6094 28.3099 40.1655 28.2142 39.7292C28.1186 39.2891 27.8507 38.9446 27.4909 38.6844C27.135 38.4241 26.6911 38.2557 26.1667 38.3552C25.3784 38.6308 24.678 38.9063 23.9776 39.1819C23.0209 39.8134 22.0564 40.0927 21.1762 40.1081C18.9756 40.1425 17.5558 39.3771 16.7368 37.8041C15.9178 36.2312 15.8029 34.6506 16.3962 33.0547C17.1577 31.1947 18.2867 30.2073 19.6033 30.0963C20.9236 29.9853 22.2478 30.2303 23.5758 30.7355C24.0197 30.9039 24.4599 31.0723 24.9038 31.1526C25.2559 31.2368 25.5238 31.3172 25.7879 31.4014L25.9639 31.4856L26.0519 31.5736H26.14C26.9322 31.6463 27.4565 31.3746 27.8009 30.8388C28.1454 30.3068 28.1339 29.6907 27.7741 29.0783C27.1465 28.2976 26.4308 27.6929 25.6309 27.1763C24.8311 26.7476 24.2073 26.1429 23.6676 25.5344C23.0438 24.9298 22.7606 23.9653 22.7415 22.733C22.7185 21.3246 23.2275 20.0846 24.1767 19.1011C25.1296 18.1175 26.2662 17.5702 27.6708 17.5473C29.0792 17.5243 30.2311 18.0333 31.2147 18.9863C31.8385 19.5029 32.2021 20.0272 32.3858 20.6396C32.4853 21.2557 32.581 21.8681 32.6805 22.4842C32.6919 23.2765 32.8833 24.2409 33.2545 25.2015C33.6219 26.0741 34.1577 26.5065 34.9499 26.495C35.6541 26.5716 36.1746 26.1238 36.5152 25.2359C36.6798 24.4399 36.7563 23.7357 36.8291 22.9435C36.9056 22.1513 36.9821 21.4433 37.2309 20.7353C37.3955 20.1153 37.7361 19.4073 38.3446 18.7796C40.0783 17.2564 41.9229 16.9617 43.9589 17.7195C45.9988 18.5653 46.99 20.1344 47.0283 22.335C47.0474 23.5673 46.8025 24.5394 46.194 25.167C45.5893 25.7947 44.9808 26.4185 44.2001 26.962C43.5035 27.4136 42.8108 28.0412 42.2061 28.7568C41.7775 29.3807 41.7851 29.9088 42.1487 30.5173C42.4204 31.1297 42.9562 31.3861 43.7446 31.2828C44.1809 31.1871 44.7091 31.0034 45.3214 30.9039C46.4619 30.6207 47.6023 30.3375 48.7428 30.1423C49.8833 29.9471 50.8554 30.0198 51.7394 30.4446C53.3353 31.21 54.1505 32.6069 54.2692 34.4516C54.2998 36.3001 53.5305 37.7199 52.0494 38.627L52.0456 38.6308Z" fill="#BA25FD"/>
</svg>
