<svg width="198" height="127" viewBox="0 0 198 127" fill="none" xmlns="http://www.w3.org/2000/svg">
<path d="M174.034 43.0903C179.51 39.2994 185.325 36.2467 192.563 36.0653C196.031 35.9792 197.846 36.3824 197.089 40.1374C191.549 67.6418 186.089 95.161 180.752 122.698C180.006 126.543 178.11 126.179 174.967 125.101C168.196 122.779 163.856 118.159 160.382 112.764C141.925 123.902 129.901 121.962 116.544 106.021C101.59 114.66 90.6583 114.963 80.3717 107.02C74.847 102.753 72.9608 97.0151 62.7832 102.245C52.6057 107.476 39.8455 104.705 33.272 96.416C30.4052 92.7993 28.4689 91.1584 24.4367 94.8567C23.2571 95.939 21.3829 96.4682 19.748 97.0753C15.6794 98.5845 10.7095 100.123 7.29622 98.0899C3.8331 96.0277 7.02012 91.7826 7.62027 88.6302C12.3525 63.7891 17.525 39.017 22.11 14.1558C23.1858 8.31891 25.4032 8.18761 30.5217 10.4443C36.3174 13.0001 39.6397 17.4831 43.1309 21.9072C62.1596 10.9352 74.3732 12.9034 86.8272 29.0416C92.1648 25.616 97.5934 22.415 104.548 22.1235C113.989 21.7279 121.546 24.8684 126.852 31.7085C129.414 35.0143 130.614 36.212 135.115 33.3499C148.626 24.7644 162.624 28.4763 174.036 43.0906L174.034 43.0903Z" fill="black"/>
<path d="M169.034 34.9775C174.51 31.1867 180.325 28.1339 187.563 27.9525C191.031 27.8664 192.846 28.2696 192.089 32.0246C186.549 59.5291 181.089 87.0482 175.752 114.585C175.006 118.43 173.11 118.066 169.967 116.988C163.196 114.666 158.856 110.047 155.382 104.651C136.925 115.789 124.901 113.849 111.544 97.9085C96.5899 106.547 85.6583 106.85 75.3717 98.9075C69.847 94.6407 67.9608 88.9023 57.7832 94.1327C47.6057 99.3631 34.8455 96.5922 28.272 88.3032C25.4052 84.6865 23.4689 83.0456 19.4367 86.744C18.2571 87.8262 16.3829 88.3554 14.748 88.9625C10.6794 90.4717 5.70946 92.0098 2.29622 89.9771C-1.1669 87.9149 2.02012 83.6698 2.62027 80.5174C7.35255 55.6763 12.525 30.9042 17.11 6.043C18.1858 0.206113 20.4032 0.0748174 25.5217 2.33153C31.3174 4.88734 34.6397 9.37035 38.1309 13.7944C57.1596 2.82242 69.3732 4.79058 81.8272 20.9288C87.1648 17.5032 92.5934 14.3022 99.5478 14.0107C108.989 13.6151 116.546 16.7556 121.852 23.5957C124.414 26.9015 125.614 28.0992 130.115 25.2371C143.626 16.6516 157.624 20.3635 169.036 34.9778L169.034 34.9775Z" fill="url(#paint0_linear_2950_9289)"/>
<defs>
<linearGradient id="paint0_linear_2950_9289" x1="105.369" y1="14.0732" x2="90.7596" y2="104.901" gradientUnits="userSpaceOnUse">
<stop stop-color="#62CDF7"/>
<stop offset="1" stop-color="#F794FF"/>
</linearGradient>
</defs>
</svg>
