<svg width="217" height="217" viewBox="0 0 217 217" fill="none" xmlns="http://www.w3.org/2000/svg">
<path d="M55.3427 78.1812C42.0086 56.196 41.0339 35.5574 57.017 16.7458C69.6162 1.91597 86.8046 -3.15814 105.29 2.43802C129.594 9.79323 139.359 28.4995 139.363 54.3031C161.749 42.0598 183.04 39.7157 202.061 57.7942C216.733 71.7392 220.145 89.4638 213.126 108.087C204.658 130.556 186.383 139.201 162.141 138.919C174.371 159.616 176.901 180.018 161.358 199.056C148.636 214.639 131.674 220.041 112.123 214.559C87.0023 207.513 78.8847 188.096 77.5778 162.819C55.1365 174.98 33.9607 177.679 15.1161 158.87C1.33421 145.114 -3.13426 128.419 3.72469 109.952C12.1344 87.3117 30.1448 78.4403 55.3381 78.1786L55.3427 78.1812Z" fill="#F96F52"/>
</svg>
