<svg width="121" height="132" viewBox="0 0 121 132" fill="none" xmlns="http://www.w3.org/2000/svg">
<path d="M107.85 85.8297C110.775 75.2787 108.428 66.669 106.352 59.0684C102.991 46.7516 97.0195 38.1858 94.1494 34.0674C89.1803 26.9329 83.1922 20.4783 76.3557 14.8903L76.3281 14.8683C70.7862 10.3606 62.5834 11.1722 58.0386 16.678C57.7797 16.9906 57.5428 17.3087 57.3169 17.6432C55.3613 16.2064 53.3505 14.8409 51.3067 13.5577C48.365 11.7096 44.8834 11.1174 41.4899 11.8796C38.1019 12.6419 35.2098 14.6764 33.3588 17.5993C32.3011 19.2664 31.6731 21.0925 31.4472 22.9461C28.8635 22.299 26.1477 22.4635 23.6081 23.4396C20.3688 24.69 17.8072 27.1193 16.4024 30.2835C14.0391 35.5974 15.5486 41.8764 20.0658 45.5506C20.9693 46.2855 21.9664 46.8942 23.0406 47.3658C28.3292 49.6964 33.3423 52.6358 37.9367 56.1126C38.6253 56.6335 39.3194 57.1764 39.9915 57.7248C41.2916 58.7832 42.5531 59.88 43.7761 61.0261C35.8764 60.7848 27.6846 62.3806 19.6857 65.7587C16.4851 67.1077 14.0061 69.6194 12.706 72.8274C11.4004 76.0355 11.4334 79.5561 12.7886 82.7423C13.6094 84.6726 14.904 86.389 16.5291 87.7107C19.4213 90.0632 23.1178 91.0339 26.6985 90.4965C26.368 91.3081 26.0871 92.1526 25.8667 93.0245C23.9992 100.291 26.66 108.357 32.4884 113.101C32.5655 113.161 32.7693 113.326 32.7693 113.326L32.9842 113.49C32.9842 113.49 33.1825 113.638 33.3698 113.776C43.3134 121.009 54.5956 119.994 61.3329 119.386C68.4449 118.744 79.1872 117.779 90.2436 109.756C93.6425 107.288 103.988 99.7861 107.855 85.8516L107.85 85.8297ZM46.6242 20.9225C52.6509 24.7064 58.2259 29.1922 63.2059 34.2538C68.814 39.9571 73.6508 46.3842 77.5841 53.3487C78.7355 55.3832 78.0083 57.9606 75.9645 59.1013C74.3945 59.9787 72.5105 59.7593 71.1938 58.69C70.7972 58.3664 70.4501 57.9606 70.1802 57.489C66.6104 51.1661 62.2254 45.3368 57.1351 40.16C52.6234 35.57 47.5607 31.5009 42.0959 28.068C40.1127 26.8177 39.5177 24.2129 40.7682 22.2387C42.0188 20.2645 44.641 19.6722 46.6242 20.917V20.9225ZM43.2362 49.148C38.0964 45.26 32.4939 41.9696 26.5829 39.3648C26.2248 39.2058 25.8998 39.0084 25.6133 38.7725C24.17 37.599 23.6301 35.57 24.4179 33.7932C25.3654 31.66 27.8719 30.6948 30.0204 31.638C36.5374 34.5061 42.7129 38.1364 48.376 42.4193C54.7608 47.2506 60.4846 52.9045 65.3985 59.2274C66.8308 61.0755 66.4892 63.7297 64.6383 65.1555C62.7818 66.5813 60.1155 66.2413 58.6831 64.3987C54.2265 58.6626 49.0316 53.5297 43.2417 49.1535L43.2362 49.148ZM85.0707 102.676C75.97 109.279 67.0456 110.079 60.5341 110.666C54.3201 111.226 45.8089 111.993 38.5316 106.701C38.3884 106.597 38.2397 106.482 38.2397 106.482L38.157 106.422C38.113 106.389 38.0744 106.356 38.0303 106.323C34.8848 103.762 33.3423 99.1007 34.3504 95.1687C35.061 92.4048 37.0938 88.7965 42.7129 87.3213C45.7979 86.5097 49.1087 86.559 51.7695 86.5919C52.3204 86.5974 52.8437 86.6084 53.3285 86.6029C56.0554 86.5919 58.3306 85.7365 58.9531 84.9194C59.0412 84.8042 59.2395 84.541 58.9861 83.6252C58.6281 82.331 56.5567 80.45 48.7286 78.8213C41.6882 77.3571 34.1851 78.2784 26.4176 81.5577C24.2581 82.4681 21.7681 81.4645 20.8536 79.3148C19.9391 77.1652 20.9473 74.6864 23.1068 73.7761C32.3672 69.8661 41.826 68.7529 50.4694 70.5516C54.8214 71.4564 65.0129 73.5787 67.1778 81.3823C68.3072 85.4677 67.0126 88.3358 65.729 90.0303C62.2033 94.6587 55.3833 95.0536 53.3781 95.0645C52.8437 95.0645 52.2653 95.0645 51.6593 95.0536C46.2937 94.9823 43.0875 95.3223 42.5807 97.2745C42.3934 98.0039 42.8176 99.2926 43.3905 99.7752C43.429 99.8026 43.4896 99.8465 43.5447 99.8903C47.8967 103.055 53.0145 102.868 59.7684 102.259C65.6078 101.733 72.8685 101.08 80.0742 95.8542C82.7294 93.9294 88.949 89.4161 91.2131 81.2616C92.8823 75.2513 91.5437 70.3542 89.6927 63.5761C87.109 54.1109 82.6358 47.6948 79.964 43.8616C75.9039 38.0322 71.001 32.7513 65.3985 28.1667C63.5861 26.6861 63.3216 24.0209 64.8145 22.2167C66.3019 20.418 68.9682 20.1548 70.7807 21.6245C70.7807 21.6245 70.7862 21.6245 70.7917 21.63C77.0002 26.708 82.4375 32.5648 86.9492 39.0358C89.7367 43.039 94.9261 50.4861 97.8954 61.3551C99.8456 68.5061 101.691 75.2623 99.4048 83.5045C96.3529 94.4997 88.1667 100.444 85.0817 102.676H85.0707Z" fill="#FF451A"/>
</svg>
