<svg width="329" height="328" viewBox="0 0 329 328" fill="none" xmlns="http://www.w3.org/2000/svg">
<path d="M290.52 194.346L328.667 174.184L293.305 149.455L322.258 117.461L280.577 106.32L296.843 66.3465L253.865 70.1433L255.485 27.0116L216.397 45.2839L203.17 4.20197L172.687 34.7444L146.213 0.666992L128.013 39.7973L91.485 16.8281L87.7549 59.8288L45.5791 50.7418L56.7774 92.4251L14.0371 98.3168L38.8142 133.654L0.666992 153.817L36.0249 178.541L7.07599 210.54L48.757 221.677L32.4911 261.654L75.4686 257.857L73.849 300.985L112.937 282.717L126.164 323.799L156.647 293.256L183.121 327.334L201.321 288.203L237.849 311.173L241.579 268.172L283.755 277.255L272.557 235.576L315.297 229.68L290.52 194.346Z" fill="#E22600"/>
</svg>
