<svg width="75" height="75" viewBox="0 0 75 75" fill="none" xmlns="http://www.w3.org/2000/svg">
<path d="M37.4673 0.928223C17.113 0.928223 0.612305 17.4289 0.612305 37.7832C0.612305 58.1376 17.113 74.6382 37.4673 74.6382C57.8216 74.6382 74.3223 58.1376 74.3223 37.7832C74.3223 17.4289 57.8216 0.928223 37.4673 0.928223ZM55.4754 41.8314C54.4583 42.2204 53.433 42.3298 52.2174 42.1637C51.0058 42.0908 49.7901 41.8314 48.7608 41.568C47.8247 41.3046 47.1724 41.2195 46.7064 41.2276C45.9608 41.2398 45.4988 41.5275 45.2313 42.184C44.9639 42.8404 44.972 43.3996 45.2597 43.9548C45.9243 44.595 46.5848 45.2393 47.3385 45.6932C47.999 46.147 48.6596 46.6981 49.2269 47.2452C49.7942 47.7963 50.1791 48.4406 50.3776 49.2753C50.7748 50.7585 50.7019 51.9741 50.1589 53.0074C49.6159 54.0408 48.7892 54.8026 47.7721 55.2848C46.3862 55.9615 44.8991 56.1722 43.3065 55.7305C41.9936 55.2848 41.1426 54.5554 40.7577 53.6274C40.2754 52.7035 40.0729 51.6824 39.9634 50.564C39.854 49.5387 39.5582 48.5216 39.2624 47.5005C38.8815 46.9494 38.3183 46.6779 37.6618 46.5968C37.0094 46.5158 36.4543 46.8035 36.1828 47.4599C35.8302 48.5824 35.66 49.7049 35.583 50.7301C35.51 51.9417 35.2466 52.971 34.89 53.8179C34.4402 54.758 33.5204 55.5198 32.0373 56.0101C30.1813 56.5086 28.4065 56.2573 26.8059 55.1632C25.5821 54.3447 24.9054 52.9588 24.8729 51.0016C24.8527 49.79 25.1161 48.7607 25.6631 48.1002C26.117 47.4397 26.7613 46.8724 27.592 46.2969C28.3295 45.8188 29.063 45.061 29.8897 44.2101C30.1652 43.9264 30.3435 43.4564 30.2421 42.9944C30.1408 42.5284 29.8572 42.1637 29.4763 41.8881C29.0995 41.6126 28.6294 41.4343 28.0743 41.5396C27.2395 41.8314 26.4979 42.1232 25.7563 42.4149C24.7432 43.0835 23.7222 43.3794 22.7901 43.3956C20.4601 43.432 18.9567 42.6216 18.0895 40.9561C17.2223 39.2906 17.1008 37.6171 17.7289 35.9273C18.5353 33.9579 19.7307 32.9124 21.1246 32.7949C22.5227 32.6774 23.9248 32.9368 25.3309 33.4717C25.801 33.65 26.267 33.8282 26.737 33.9133C27.1098 34.0025 27.3935 34.0876 27.6731 34.1768L27.8595 34.2659L27.9527 34.3591H28.0459C28.8847 34.4361 29.4398 34.1484 29.8045 33.5811C30.1692 33.0178 30.1571 32.3654 29.7762 31.717C29.1116 30.8904 28.3538 30.2502 27.5069 29.7031C26.66 29.2493 25.9995 28.609 25.4281 27.9647C24.7676 27.3244 24.4677 26.3033 24.4474 24.9984C24.4231 23.5072 24.9621 22.1943 25.967 21.1529C26.976 20.1115 28.1796 19.532 29.6668 19.5077C31.158 19.4834 32.3777 20.0223 33.4191 21.0313C34.0796 21.5784 34.4646 22.1335 34.6591 22.7819C34.7645 23.4343 34.8657 24.0827 34.9711 24.7351C34.9832 25.5739 35.1858 26.595 35.5789 27.6121C35.9679 28.536 36.5353 28.9939 37.3741 28.9818C38.1197 29.0628 38.6708 28.5887 39.0314 27.6486C39.2057 26.8058 39.2867 26.0601 39.3637 25.2213C39.4448 24.3825 39.5258 23.6329 39.7892 22.8832C39.9635 22.2267 40.3241 21.4771 40.9684 20.8125C42.804 19.1997 44.7573 18.8877 46.9131 19.69C49.0729 20.5856 50.1224 22.247 50.163 24.577C50.1832 25.8818 49.9238 26.9111 49.2795 27.5757C48.6393 28.2402 47.995 28.9008 47.1683 29.4762C46.4308 29.9543 45.6974 30.6189 45.0571 31.3766C44.6033 32.0372 44.6114 32.5964 44.9964 33.2407C45.2841 33.889 45.8514 34.1605 46.6861 34.0511C47.1481 33.9498 47.7072 33.7553 48.3556 33.65C49.5632 33.3501 50.7708 33.0502 51.9784 32.8436C53.1859 32.6369 54.2151 32.7139 55.1512 33.1637C56.841 33.9741 57.7041 35.4532 57.8298 37.4064C57.8622 39.3636 57.0477 40.867 55.4794 41.8274L55.4754 41.8314Z" fill="black"/>
</svg>
