<svg width="63" height="62" viewBox="0 0 63 62" fill="none" xmlns="http://www.w3.org/2000/svg">
<g clip-path="url(#clip0_0_585)">
<path d="M31.1907 33.6746C29.0613 32.9477 28.0785 31.9854 28.1092 30.675C28.2014 29.2213 29.5425 28.1566 31.334 28.1258C32.7775 28.1566 34.0777 28.5558 35.2652 29.3441C35.4086 29.4362 35.5109 29.426 35.5826 29.3032C35.6338 29.2315 35.6338 29.2213 35.8385 28.8937C35.9921 28.648 36.0638 28.5251 36.115 28.4534C36.1969 28.3204 36.1661 28.2077 36.0331 28.1054C35.7874 27.9313 35.0912 27.5423 34.7022 27.3785C33.5965 26.9178 32.4499 26.6721 31.3033 26.6721C28.7337 26.6824 26.6965 28.3204 26.5224 30.5112C26.4098 32.098 27.1879 33.3777 28.8566 34.3502C29.2149 34.555 31.1395 35.333 31.8971 35.5685C34.3336 36.3363 35.5724 37.6979 35.2755 39.2847C35.0093 40.7282 33.5044 41.6598 31.4159 41.6905C29.9213 41.6291 28.4266 41.0558 27.1571 40.0525C27.1469 40.0525 27.1162 40.0218 27.065 39.9809C27.0138 39.9399 27.0138 39.9399 26.9933 39.9194C26.9933 39.9194 26.9865 39.9126 26.9729 39.899C26.8398 39.7966 26.7067 39.8068 26.6248 39.9297C26.5941 39.9706 26.5634 40.0218 26.3074 40.4006C26.1334 40.6668 26.0515 40.7794 26.0003 40.8511C25.9184 40.9637 25.9389 41.0353 26.0617 41.1377C26.5429 41.5472 27.1776 41.9772 27.5974 42.1922C28.7747 42.7962 30.0646 43.134 31.4262 43.1852C32.3066 43.2466 33.402 43.0521 34.2313 42.704C35.7157 42.0693 36.6678 40.8101 36.8521 39.2335C37.1592 36.6742 35.5109 35.0464 31.201 33.6643L31.1907 33.6746Z" fill="black"/>
<path d="M31.5195 16.5977C28.7144 16.5977 26.4212 19.2594 26.3188 22.5968H36.7304C36.628 19.2594 34.3348 16.5977 31.5297 16.5977H31.5195Z" fill="black"/>
<path d="M31.4976 0.381836C14.5443 0.381836 0.805603 14.1206 0.805603 31.0739C0.805603 48.0272 14.5443 61.7659 31.4976 61.7659C48.4509 61.7659 62.1896 48.0272 62.1896 31.0739C62.1896 14.1206 48.4612 0.381836 31.4976 0.381836ZM46.0554 23.2626L45.0009 44.5771C45.0009 44.5771 45.0009 44.6488 45.0009 44.6897C45.0009 44.7102 45.0009 44.7205 45.0009 44.7409V44.7614C44.878 46.2561 43.67 47.4641 42.1856 47.5051H20.6459C19.1922 47.4436 18.1172 46.2561 17.9739 44.7819V44.7307C17.9739 44.7205 17.9739 44.7 17.9739 44.6897C17.9739 44.6283 17.9739 44.5669 17.9739 44.5157L17.0116 23.2831C17.0116 23.2831 17.0116 23.2524 17.0116 23.2319C17.0116 22.8941 17.288 22.6074 17.6258 22.6074H24.3826C24.5464 18.2053 27.6893 14.6939 31.5488 14.6939C35.4084 14.6939 38.5513 18.2053 38.7151 22.6074H45.4616C45.8097 22.6074 46.0861 22.8839 46.0861 23.2319C46.0861 23.2422 46.0861 23.2524 46.0861 23.2626H46.0554Z" fill="black"/>
</g>
<defs>
<clipPath id="clip0_0_585">
<rect width="61.3943" height="61.3943" fill="white" transform="translate(0.805664 0.381836)"/>
</clipPath>
</defs>
</svg>
