<svg width="71" height="70" viewBox="0 0 71 70" fill="none" xmlns="http://www.w3.org/2000/svg">
<path d="M35.6512 0C16.4277 0 0.84375 15.584 0.84375 34.8075C0.84375 54.0311 16.4277 69.615 35.6512 69.615C54.8748 69.615 70.4587 54.0311 70.4587 34.8075C70.4587 15.584 54.8748 0 35.6512 0ZM52.6589 38.6308C51.6983 38.9982 50.73 39.1015 49.5819 38.9446C48.4376 38.8757 47.2895 38.6308 46.3174 38.382C45.4333 38.1333 44.8172 38.0529 44.377 38.0606C43.6729 38.072 43.2366 38.3438 42.984 38.9637C42.7314 39.5837 42.739 40.1119 43.0108 40.6362C43.6384 41.2409 44.2622 41.8494 44.9741 42.278C45.5979 42.7066 46.2217 43.2271 46.7575 43.7438C47.2933 44.2643 47.6569 44.8728 47.8444 45.6612C48.2195 47.0619 48.1506 48.21 47.6377 49.1859C47.1249 50.1618 46.3442 50.8813 45.3836 51.3368C44.0747 51.9759 42.6702 52.1749 41.1661 51.7578C39.9261 51.3368 39.1224 50.6479 38.7589 49.7715C38.3034 48.8989 38.1121 47.9345 38.0087 46.8782C37.9054 45.9099 37.626 44.9493 37.3467 43.9849C36.9869 43.4644 36.4549 43.208 35.8349 43.1315C35.2188 43.0549 34.6945 43.3266 34.4381 43.9466C34.1051 45.0067 33.9444 46.0668 33.8716 47.0351C33.8028 48.1794 33.554 49.1515 33.2172 49.9513C32.7924 50.8392 31.9237 51.5587 30.5229 52.0218C28.7701 52.4926 27.0938 52.2553 25.5821 51.222C24.4264 50.4489 23.7872 49.14 23.7566 47.2915C23.7375 46.1472 23.9862 45.1751 24.5029 44.5513C24.9315 43.9275 25.54 43.3917 26.3246 42.8482C27.0211 42.3966 27.7138 41.681 28.4946 40.8773C28.7548 40.6094 28.9232 40.1655 28.8275 39.7292C28.7318 39.2891 28.4639 38.9446 28.1042 38.6844C27.7483 38.4241 27.3043 38.2557 26.78 38.3552C25.9916 38.6308 25.2913 38.9063 24.5909 39.1819C23.6341 39.8134 22.6697 40.0927 21.7895 40.1081C19.5889 40.1425 18.169 39.3771 17.35 37.8041C16.531 36.2312 16.4162 34.6506 17.0094 33.0547C17.771 31.1947 18.9 30.2073 20.2165 30.0963C21.5369 29.9853 22.8611 30.2303 24.1891 30.7355C24.633 30.9039 25.0731 31.0723 25.5171 31.1526C25.8692 31.2368 26.1371 31.3172 26.4011 31.4014L26.5772 31.4856L26.6652 31.5736H26.7532C27.5454 31.6463 28.0698 31.3746 28.4142 30.8388C28.7586 30.3068 28.7472 29.6907 28.3874 29.0783C27.7598 28.2976 27.0441 27.6929 26.2442 27.1763C25.4444 26.7476 24.8205 26.1429 24.2809 25.5344C23.6571 24.9298 23.3739 23.9653 23.3548 22.733C23.3318 21.3246 23.8408 20.0846 24.7899 19.1011C25.7429 18.1175 26.8795 17.5702 28.2841 17.5473C29.6924 17.5243 30.8444 18.0333 31.828 18.9863C32.4518 19.5029 32.8154 20.0272 32.9991 20.6396C33.0986 21.2557 33.1942 21.8681 33.2938 22.4842C33.3052 23.2765 33.4966 24.2409 33.8678 25.2015C34.2352 26.0741 34.771 26.5065 35.5632 26.495C36.2674 26.5716 36.7879 26.1238 37.1285 25.2359C37.2931 24.4399 37.3696 23.7357 37.4423 22.9435C37.5189 22.1513 37.5954 21.4433 37.8442 20.7353C38.0087 20.1153 38.3494 19.4073 38.9579 18.7796C40.6915 17.2564 42.5362 16.9617 44.5722 17.7195C46.6121 18.5653 47.6033 20.1344 47.6416 22.335C47.6607 23.5673 47.4158 24.5394 46.8073 25.167C46.2026 25.7947 45.5941 26.4185 44.8133 26.962C44.1168 27.4136 43.4241 28.0412 42.8194 28.7568C42.3908 29.3807 42.3984 29.9088 42.762 30.5173C43.0337 31.1297 43.5695 31.3861 44.3579 31.2828C44.7942 31.1871 45.3223 31.0034 45.9347 30.9039C47.0751 30.6207 48.2156 30.3375 49.3561 30.1423C50.4966 29.9471 51.4687 30.0198 52.3527 30.4446C53.9486 31.21 54.7638 32.6069 54.8824 34.4516C54.9131 36.3001 54.1438 37.7199 52.6627 38.627L52.6589 38.6308Z" fill="#00B8EA"/>
</svg>
