<svg width="115" height="93" viewBox="0 0 115 93" fill="none" xmlns="http://www.w3.org/2000/svg">
<path d="M6.7909 45.171C5.51632 66.0195 24.0939 80.0856 43.005 82.8612C66.3077 86.2743 88.4503 75.2851 108.5 64.881C114.907 61.5623 109.707 51.6102 103.266 54.949C86.5322 63.6247 68.7255 72.9668 49.3226 72.1768C34.7216 71.5792 16.9611 62.7527 18.004 45.7744C18.4522 38.5448 7.23226 37.9684 6.7909 45.171Z" fill="#00AC56"/>
<path d="M78.4382 16.39C76.3557 21.6044 74.2611 26.8215 72.1787 32.0359C71.6621 33.3291 71.9144 35.1772 72.5467 36.3839C73.1763 37.5784 74.4596 38.7441 75.7845 39.1139C78.879 39.9719 81.6868 38.4182 82.8648 35.5082C84.9473 30.2938 87.0419 25.0767 89.1244 19.8623C89.6409 18.5691 89.3886 16.7209 88.7564 15.5143C88.1267 14.3197 86.8434 13.1541 85.5185 12.7843C82.424 11.9263 79.6163 13.48 78.4382 16.39Z" fill="#00AC56"/>
<path d="M51.9475 14.5376C51.469 18.208 50.9932 21.8906 50.5148 25.561C50.3355 26.9454 51.0818 28.6727 51.9971 29.6651C52.9125 30.6575 54.4593 31.461 55.831 31.4652C57.305 31.4724 58.8664 31.0671 59.9364 29.9827C61.0063 28.8983 61.5361 27.6656 61.7374 26.1496C62.2158 22.4791 62.6916 18.7965 63.1701 15.1261C63.3493 13.7418 62.6031 12.0144 61.6877 11.022C60.7723 10.0296 59.2256 9.22618 57.8538 9.22195C56.3798 9.21471 54.8185 9.62001 53.7485 10.7044C52.6785 11.7889 52.1487 13.0215 51.9475 14.5376Z" fill="#00AC56"/>
</svg>
