<svg width="140" height="128" viewBox="0 0 140 128" fill="none" xmlns="http://www.w3.org/2000/svg">
<path d="M44.0989 45.363C48.6867 31.8392 53.2869 18.3154 57.8746 4.79161H51.117C55.6551 17.8816 60.1933 30.9715 64.7439 44.0615C65.6491 46.6522 68.5381 47.3712 70.5964 45.611C85.9717 32.4838 103.244 21.8358 121.905 14.0389C120.591 12.3282 119.264 10.6052 117.95 8.89461C107.336 26.1124 94.0685 41.2228 78.4328 54.0525C76.7093 55.4656 77.2921 58.5646 79.1396 59.5562C97.5155 69.4109 115.904 79.278 134.28 89.1326L136.053 82.6124C118.185 83.0091 100.33 83.4181 82.4626 83.8148C80.4911 83.8644 79.0652 85.3891 78.966 87.3104C78.284 99.9541 79.4992 112.412 82.5246 124.709C84.6573 123.804 86.79 122.911 88.9227 122.006C80.7763 110.577 72.6423 99.1484 64.4959 87.7319C63.4296 86.2444 61.4085 85.3767 59.7097 86.4799C45.4628 95.6404 32.7535 106.722 21.7924 119.639C23.7391 120.779 25.6982 121.907 27.6449 123.048C31.7367 109.561 35.8285 96.0866 39.9327 82.6C40.6519 80.2448 38.73 78.3731 36.5601 78.1747C25.5494 77.1087 14.5263 76.055 3.51567 74.989C4.11084 77.1583 4.69362 79.3399 5.28879 81.5092C14.7495 74.3816 24.2103 67.254 33.6586 60.114C35.7913 58.515 36.0145 55.6392 33.6586 54.0649C25.2394 48.462 16.8326 42.8591 8.41343 37.2438C7.81826 39.4131 7.23549 41.5947 6.64032 43.764C17.961 43.9623 29.2816 44.173 40.6147 44.3714C45.128 44.4582 45.128 37.4545 40.6147 37.3678C29.294 37.1694 17.9734 36.9587 6.64032 36.7604C2.9949 36.6984 2.10214 41.4336 4.86721 43.2806C13.2864 48.8835 21.6932 54.4864 30.1124 60.1017V54.0525C20.6516 61.1801 11.1909 68.3077 1.74256 75.4477C-1.0721 77.5673 -0.0925518 81.6208 3.51567 81.9678C14.5263 83.0339 25.5494 84.0875 36.5601 85.1536C35.4317 83.6785 34.3034 82.2033 33.1874 80.7282C29.0956 94.2149 25.0038 107.689 20.8996 121.176C19.9201 124.399 24.4583 127.299 26.7521 124.585C37.3288 112.114 49.4926 101.367 63.2436 92.5166C61.644 92.0952 60.0445 91.6738 58.4574 91.2647C66.6038 102.694 74.7378 114.123 82.8842 125.539C85.1161 128.675 90.2867 126.878 89.2823 122.837C86.3932 111.123 85.3145 99.3467 85.9717 87.298C84.8061 88.4632 83.6406 89.6284 82.475 90.7936C100.343 90.397 118.198 89.9879 136.065 89.5913C139.413 89.5169 140.988 84.7569 137.838 83.0711C119.462 73.2164 101.074 63.3493 82.6982 53.4947C82.9338 55.3293 83.1694 57.1638 83.405 58.9984C99.487 45.8093 113.114 30.1286 124.013 12.4274C125.489 10.0474 122.971 6.06837 120.058 7.28316C100.206 15.5759 82.0287 26.695 65.6615 40.6526C67.6082 41.1733 69.5673 41.6815 71.514 42.2021C66.9758 29.1122 62.4376 16.0222 57.887 2.93224C56.7463 -0.365043 52.2701 -0.402231 51.1294 2.93224C46.5416 16.4561 41.9414 29.9799 37.3536 43.5037C35.9029 47.7802 42.6606 49.6148 44.1113 45.363H44.0989Z" fill="#00B8EA"/>
</svg>
