<svg width="62" height="62" viewBox="0 0 62 62" fill="none" xmlns="http://www.w3.org/2000/svg">
<path d="M30.857 0.205078C13.893 0.205078 0.144531 13.9535 0.144531 30.9176C0.144531 47.8816 13.893 61.6301 30.857 61.6301C47.8211 61.6301 61.5695 47.8816 61.5695 30.9176C61.5695 13.9535 47.8211 0.205078 30.857 0.205078ZM47.7555 27.4066C46.607 27.4066 45.4914 27.2426 44.3758 27.0129C42.4727 26.5863 40.7008 25.7988 39.0602 24.716L38.732 24.8801C38.732 29.277 38.732 33.7066 38.732 38.1035C38.732 41.1879 37.7477 43.9441 35.7133 46.2738C33.5805 48.7676 30.857 50.2113 27.5758 50.6051C25.0492 50.9004 22.6539 50.441 20.3898 49.3254C20.0289 49.1285 19.668 48.9316 19.3398 48.702C19.2414 48.6035 19.143 48.5051 19.0445 48.4395C18.782 48.341 18.5852 48.1441 18.3883 47.9801C16.3539 46.3723 14.943 44.3379 14.1555 41.877C13.893 41.0238 13.6961 40.1379 13.6305 39.252C13.5648 38.5957 13.5648 37.9395 13.6305 37.316C13.7289 35.8395 14.0898 34.3957 14.7133 33.0176C15.3695 31.6066 16.2227 30.327 17.3711 29.2441C18.6836 27.9645 20.193 27.0129 21.8992 26.3895C22.982 25.9957 24.0977 25.766 25.2133 25.6676C26.0336 25.602 26.8539 25.6348 27.6742 25.7332C27.7727 25.7332 27.8383 25.766 27.8383 25.8973C27.8383 26.3566 27.8383 26.816 27.8383 27.2754C27.8383 27.2754 27.9039 30.7535 27.9039 32.3285C27.9039 32.3941 27.9039 32.427 27.9039 32.4926C27.9039 32.6566 27.8055 32.6895 27.6742 32.6566C27.2477 32.5254 26.7883 32.4598 26.3289 32.4598C25.6398 32.427 24.9508 32.5254 24.2945 32.7551C22.0961 33.5754 20.7836 35.1176 20.5211 37.4145C20.2586 39.6785 21.1445 41.516 23.0477 42.7957C23.2117 42.8941 23.3758 42.9926 23.507 43.1238C23.5398 43.1238 23.5727 43.1895 23.6055 43.2223C24.032 43.3863 24.4914 43.5832 24.9508 43.6488C26.4273 43.9441 27.8383 43.7145 29.118 42.927C30.5945 42.0082 31.4805 40.6629 31.7758 38.9566C31.8414 38.6285 31.8414 38.3004 31.8414 37.9723C31.8414 29.1129 31.8414 20.2863 31.8414 11.427C31.8414 11.0004 31.7758 11.066 32.2024 11.066C34.2367 11.066 36.2711 11.066 38.3383 11.066C38.3711 11.066 38.4367 11.066 38.4695 11.066C38.6664 11.066 38.6664 11.066 38.6664 11.2957C38.6664 11.7551 38.8633 12.8707 38.8633 12.9691C39.7492 17.4316 44.9664 20.1879 46.5742 20.4176C47.0008 20.4832 47.4602 20.5488 47.9195 20.5488C48.1164 20.5488 48.1164 20.5488 48.1164 20.7457C48.1164 21.1723 48.182 25.4379 48.182 27.0129C48.182 27.3738 48.1492 27.3738 47.7883 27.3738L47.7555 27.4066Z" fill="black"/>
</svg>
