<svg width="52" height="52" viewBox="0 0 52 52" fill="none" xmlns="http://www.w3.org/2000/svg">
<path d="M25.5938 25.5937C22.0746 25.5937 19.062 24.3407 16.556 21.8347C14.0499 19.3286 12.7969 16.316 12.7969 12.7969C12.7969 9.27773 14.0499 6.26514 16.556 3.75908C19.062 1.25303 22.0746 0 25.5938 0C29.1129 0 32.1255 1.25303 34.6315 3.75908C37.1376 6.26514 38.3906 9.27773 38.3906 12.7969C38.3906 16.316 37.1376 19.3286 34.6315 21.8347C32.1255 24.3407 29.1129 25.5937 25.5938 25.5937ZM44.7891 51.1875H6.39844C4.63887 51.1875 3.13204 50.5604 1.87795 49.3064C0.623853 48.0523 -0.00212738 46.5465 5.43161e-06 44.7891V42.2297C5.43161e-06 40.4168 0.467092 38.75 1.40126 37.2293C2.33544 35.7086 3.5746 34.5494 5.11875 33.7518C8.42461 32.0988 11.7838 30.8586 15.1963 30.0311C18.6088 29.2035 22.0746 28.7908 25.5938 28.793C29.1129 28.793 32.5787 29.2067 35.9912 30.0343C39.4037 30.8618 42.7629 32.101 46.0687 33.7518C47.615 34.5516 48.8553 35.7118 49.7894 37.2325C50.7236 38.7532 51.1896 40.4189 51.1875 42.2297V44.7891C51.1875 46.5486 50.5604 48.0555 49.3064 49.3096C48.0523 50.5636 46.5465 51.1896 44.7891 51.1875ZM6.39844 44.7891H44.7891V42.2297C44.7891 41.6432 44.6419 41.11 44.3476 40.6301C44.0532 40.1502 43.6672 39.7769 43.1894 39.5103C40.3102 38.0707 37.4042 36.9915 34.4716 36.2727C31.539 35.554 28.5797 35.1935 25.5938 35.1914C22.6078 35.1914 19.6485 35.5518 16.7159 36.2727C13.7833 36.9936 10.8773 38.0728 7.99805 39.5103C7.51817 39.7769 7.13106 40.1502 6.83673 40.6301C6.54241 41.11 6.39631 41.6432 6.39844 42.2297V44.7891ZM25.5938 19.1953C27.3533 19.1953 28.8602 18.5683 30.1142 17.3142C31.3683 16.0601 31.9943 14.5543 31.9922 12.7969C31.9922 11.0373 31.3651 9.53047 30.111 8.27638C28.857 7.02228 27.3512 6.3963 25.5938 6.39844C23.8342 6.39844 22.3273 7.02548 21.0733 8.27958C19.8192 9.53367 19.1932 11.0394 19.1953 12.7969C19.1953 14.5564 19.8224 16.0633 21.0765 17.3174C22.3305 18.5715 23.8363 19.1974 25.5938 19.1953Z" fill="black"/>
</svg>
