<svg width="111" height="111" viewBox="0 0 111 111" fill="none" xmlns="http://www.w3.org/2000/svg">
<g clip-path="url(#clip0_166_211)">
<path d="M96.4734 65.2669C97.5716 56.7127 94.7956 50.2645 92.3519 44.5747C88.3902 35.3569 82.8228 29.3539 80.1477 26.4646C75.511 21.4686 70.1695 17.1158 64.2575 13.534L64.2347 13.5249C59.452 10.6362 53.1928 12.1919 50.2892 16.9977C50.1224 17.2711 49.9757 17.5471 49.8363 17.8314C48.1651 16.9334 46.4594 16.096 44.7327 15.3246C42.2526 14.2165 39.4911 14.1482 36.9534 15.1242C34.4139 16.1049 32.4084 18.0143 31.2977 20.5024C30.6644 21.9224 30.3814 23.4181 30.4112 24.8841C28.3409 24.6714 26.2563 25.1057 24.4035 26.1524C22.0357 27.4985 20.3266 29.685 19.589 32.3108C18.3541 36.7186 20.2101 41.4423 24.1125 43.7953C24.8924 44.2646 25.7344 44.6311 26.6145 44.8749C30.9643 46.0895 35.1674 47.8189 39.1044 50.0052C39.6964 50.3361 40.2893 50.678 40.8722 51.0318C41.9933 51.7057 43.0916 52.4237 44.1663 53.1747C38.028 53.8815 31.8684 56.0501 26.0569 59.5883C23.7301 61.0037 22.0913 63.2394 21.4394 65.8887C20.7875 68.5379 21.199 71.2756 22.6016 73.606C23.4513 75.0159 24.6401 76.2103 26.0467 77.0562C28.5425 78.5633 31.5075 78.9035 34.223 78.0778C34.0564 78.7493 33.9354 79.4389 33.8572 80.1403C33.2167 86.0156 36.1657 92.0019 41.2011 95.0388C41.2641 95.0798 41.4401 95.1816 41.4401 95.1816L41.6207 95.2853C41.6207 95.2853 41.7895 95.3789 41.9464 95.4625C50.4406 99.9754 59.0534 97.9066 64.1974 96.6717C69.6268 95.37 77.8311 93.3987 85.4942 85.8943C87.848 83.5873 95.0225 76.568 96.4716 65.2714L96.4734 65.2669Z" fill="#F7BBFF"/>
<path d="M44.7339 89.1408C42.0155 87.5028 40.3069 84.0424 40.6521 80.8625C40.8975 78.6248 42.0681 75.5874 46.2552 73.7969C48.5521 72.8154 51.1165 72.4762 53.1793 72.203C53.6088 72.1456 54.0146 72.0946 54.3866 72.0356C56.4941 71.7165 58.1608 70.7922 58.5518 70.0878C58.6056 69.9925 58.7341 69.7623 58.4365 69.076C58.0184 68.1084 56.2067 66.8733 49.9686 66.4896C44.3597 66.1437 38.655 67.7129 33.0112 71.1479C31.4439 72.1011 29.4027 71.6027 28.4582 70.033C27.5136 68.4633 28.0171 66.4131 29.5844 65.46C36.315 61.3637 43.5079 59.4256 50.3954 59.8499C53.861 60.0601 61.9806 60.5603 64.5165 66.4035C65.8428 69.4572 65.158 71.8439 64.3497 73.3058C62.1379 77.3146 56.9036 78.3914 55.3533 78.6243C54.942 78.689 54.4924 78.7437 54.0237 78.8068C49.8653 79.3561 47.4242 79.9831 47.2497 81.5643C47.1843 82.154 47.6543 83.1104 48.1542 83.4206C48.1907 83.4351 48.2372 83.4642 48.2856 83.4888C52 85.4644 55.9385 84.7375 61.0999 83.499C65.5563 82.426 71.1024 81.0963 76.0981 76.2094C77.9405 74.405 82.2533 70.186 83.1015 63.5758C83.7243 58.7018 82.1505 55.035 79.9679 49.9637C76.9208 42.8823 72.7512 38.3851 70.2604 35.6964C66.4713 31.6105 62.0978 28.0513 57.2558 25.1125C55.6904 24.1611 55.1935 22.1165 56.1422 20.5406C57.0937 18.9711 59.1281 18.4637 60.6926 19.4041L60.7017 19.4077C66.0664 22.6658 70.9197 26.6122 75.1258 31.1505C77.7234 33.9559 82.5636 39.1708 86.0625 47.3077C88.3656 52.6603 90.5382 57.7169 89.6809 64.4031C88.5382 73.3216 82.8597 78.8765 80.7238 80.9676C74.4135 87.1417 67.6035 88.7809 62.6237 89.9748C57.8773 91.113 51.3764 92.6787 45.1681 89.3772C45.0459 89.3126 44.9163 89.2399 44.9163 89.2399L44.847 89.2017C44.8123 89.1826 44.7749 89.1572 44.7403 89.1381L44.7339 89.1408ZM27.6498 37.8991C26.4056 37.1496 25.7602 35.6246 26.1773 34.1504C26.6754 32.3794 28.509 31.341 30.2721 31.835C35.6287 33.3331 40.8088 35.4616 45.6662 38.1624C51.1384 41.2031 56.1923 44.9639 60.6929 49.3327C62.0076 50.609 62.0358 52.7167 60.7596 54.0403C59.4833 55.3639 57.383 55.3993 56.0683 54.123C51.9847 50.1535 47.3988 46.7434 42.4374 43.9853C38.0333 41.5391 33.3349 39.6074 28.4726 38.2474C28.1771 38.1671 27.9043 38.0427 27.6562 37.8963L27.6498 37.8991ZM65.1101 48.2653C64.7644 48.0589 64.4524 47.7809 64.195 47.4451C60.7331 42.9214 56.696 38.8749 52.1875 35.4159C48.19 32.3458 43.8242 29.7502 39.2142 27.6892C37.5422 26.9395 36.7963 24.9764 37.5444 23.2942C38.2924 21.612 40.2556 20.8586 41.9294 21.6037C47.011 23.8735 51.8201 26.7355 56.2319 30.1189C61.1973 33.9295 65.6505 38.3908 69.4665 43.379C70.5824 44.8364 70.3051 46.9287 68.851 48.049C67.7369 48.9116 66.2522 48.9529 65.1147 48.2671L65.1101 48.2653Z" fill="#FF531B"/>
</g>
<defs>
<clipPath id="clip0_166_211">
<rect width="84.6561" height="84.6561" fill="white" transform="translate(32.1309 0.606934) rotate(21.6818)"/>
</clipPath>
</defs>
</svg>
