<svg width="137" height="26" viewBox="0 0 137 26" fill="none" xmlns="http://www.w3.org/2000/svg">
<g clip-path="url(#clip0_166_203)">
<path d="M133.591 0.368586C122.88 7.55197 111.819 13.1248 99.3144 16.6778C93.328 18.3793 87.3366 19.3587 81.072 19.859C79.195 20.004 77.0598 19.7692 75.4511 18.65C78.3529 17.1102 81.4876 15.4154 83.7081 12.9955C85.9285 10.5755 86.8503 6.97904 84.2534 4.65076C81.3764 2.06774 78.0421 4.26553 75.6171 6.46623C72.7655 9.05087 71.0172 11.9451 70.8122 15.8231C70.7854 16.2596 70.9067 16.6428 70.9543 17.065C67.7438 18.2013 64.5146 19.0764 61.1522 19.5937C58.137 20.0527 55.2039 20.298 52.1178 20.3976C49.0444 20.5093 45.9699 20.5712 42.8356 20.2236C40.9499 20.0077 39.0542 19.3811 37.4944 18.2233C37.9504 18.0254 38.4935 17.8255 38.9741 17.6146C41.956 16.2971 45.856 14.8328 47.0881 11.7145C48.3203 8.59618 46.2842 5.76864 43.0182 5.63595C36.8348 5.37458 32.1838 10.2818 32.7338 16.5451C23.5056 19.6327 13.7804 20.1918 4.23007 20.261C1.09238 20.2871 0.0453736 23.3387 3.35973 23.4079C13.9886 23.6489 24.128 22.7062 34.1877 19.4988C36.2576 21.6655 38.804 22.9364 41.7655 23.3505C45.6514 23.8792 49.4594 23.7621 53.3157 23.5816C59.9086 23.2727 66.0962 22.1641 72.3207 20.0084C73.5721 21.2858 74.8432 22.3509 76.6703 22.7177C80.0747 23.4199 83.5531 23.0618 86.9635 22.4687C104.872 19.3828 120.501 13.1763 135.396 2.90283C137.16 1.68951 135.343 -0.819543 133.591 0.368586ZM38.7862 9.84805C39.8998 9.03653 41.0483 8.63513 42.3943 8.67729C43.3664 8.70358 44.5098 9.12425 44.2276 10.3266C43.945 11.5166 42.5205 12.3481 41.4877 12.8961C39.803 13.7837 38.1256 14.4594 36.3873 15.1865C36.2024 15.2656 36.0172 15.3324 35.832 15.3991C35.7496 13.0225 36.9387 11.2128 38.7989 9.8602L38.7862 9.84805ZM76.5256 10.0434C77.5428 8.84811 81.5146 4.69212 82.4253 7.84577C83.1594 10.3935 79.658 12.3711 77.8193 13.5863C76.5445 14.4266 75.3149 15.079 73.9985 15.746C74.0924 13.4523 75.0241 11.8108 76.5256 10.0434Z" fill="#0D0A01"/>
</g>
<defs>
<clipPath id="clip0_166_203">
<rect width="135.257" height="21.7502" fill="white" transform="translate(0.867188 3.2937) rotate(-1.38593)"/>
</clipPath>
</defs>
</svg>
