<svg width="29" height="29" viewBox="0 0 29 29" fill="none" xmlns="http://www.w3.org/2000/svg">
<g clip-path="url(#clip0_225_225)">
<path fill-rule="evenodd" clip-rule="evenodd" d="M14.305 0.66687C22.148 0.66687 28.4068 6.97521 28.4068 14.7687C28.4068 22.5622 22.0985 28.8139 14.305 28.8139C6.51152 28.8139 0.259766 22.5551 0.259766 14.7687C0.259766 6.98228 6.5681 0.66687 14.305 0.66687Z" fill="black"/>
<path fill-rule="evenodd" clip-rule="evenodd" d="M14.3046 12.4347C15.6129 12.4347 16.6384 13.4602 16.6384 14.7685C16.6384 16.0768 15.6129 17.1023 14.3046 17.1023C12.9962 17.1023 12.0273 16.0203 12.0273 14.7685C12.0273 13.5167 13.0528 12.4347 14.3046 12.4347Z" fill="#F4EDED"/>
<path fill-rule="evenodd" clip-rule="evenodd" d="M14.0607 2.43225H14.6067C14.9706 2.43225 15.2133 2.63921 15.2133 2.90438V10.7043C15.2133 10.963 14.9706 11.2217 14.6067 11.2217H14.0607C13.7574 11.2217 13.4541 10.963 13.4541 10.7043V2.89792C13.4541 2.63921 13.7574 2.42578 14.0607 2.42578V2.43225Z" fill="#F4EDED"/>
<path fill-rule="evenodd" clip-rule="evenodd" d="M5.09082 15.052V14.4862C5.09082 14.2033 5.31713 13.9204 5.65659 13.9204H10.5434C10.8263 13.9204 11.0526 14.2033 11.0526 14.4862V15.052C11.0526 15.3348 10.8263 15.6248 10.5434 15.6248H5.65659C5.31713 15.6248 5.09082 15.3419 5.09082 15.052Z" fill="#F4EDED"/>
<path fill-rule="evenodd" clip-rule="evenodd" d="M14.3049 13.8564C14.8141 13.8564 15.2668 14.2525 15.2668 14.7688C15.2668 15.2214 14.8141 15.6811 14.3049 15.6811C13.8523 15.6811 13.4492 15.2284 13.4492 14.7688C13.4492 14.2596 13.8453 13.8564 14.3049 13.8564Z" fill="#F4EDED"/>
</g>
<defs>
<clipPath id="clip0_225_225">
<rect width="28.1471" height="28.1471" fill="white" transform="translate(0.259766 0.66687)"/>
</clipPath>
</defs>
</svg>
