<svg width="131" height="84" viewBox="0 0 131 84" fill="none" xmlns="http://www.w3.org/2000/svg">
<path d="M3.7118 83.8111C37.5622 81.3939 46.1053 41.2563 50.6311 14.3078C51.3999 9.70898 51.4495 4.05653 46.8865 1.31705C41.3316 -2.01741 35.2807 2.09794 32.7884 7.15543C29.7258 13.3657 28.957 21.2867 28.3866 28.1044C27.6302 37.3516 28.3246 46.76 30.3829 55.8089C31.7593 61.8829 33.3835 69.2212 37.8721 73.8325C42.7947 78.89 50.4451 79.1254 56.868 77.3652C70.6685 73.5721 79.7201 61.0772 84.0599 48.0864C86.701 40.1531 94.6986 14.9772 79.2613 14.9772C64.3325 14.9772 62.8445 40.2398 63.5513 50.4912C64.5433 65.0438 73.6196 79.5469 90.1852 73.4729C104.866 68.0932 114.141 53.5901 115.827 38.5169C116.224 34.9221 111.624 34.0419 109.404 35.8517C99.4104 44.033 94.0662 59.3294 104.01 69.8658C112.182 78.5181 126.119 75.8281 130.644 65.019C132.504 60.5565 125.238 58.6104 123.391 63.0233C120.043 71.0186 109.789 67.3619 107.197 61.04C104.023 53.3174 108.896 45.9667 114.736 41.1819C112.591 40.2894 110.458 39.4094 108.313 38.5169C107.234 48.198 102.051 57.3833 94.0166 62.9986C89.9744 65.8248 84.4071 68.6262 79.4473 66.8412C74.8595 65.1926 72.8632 60.3582 71.8589 55.9329C70.7801 51.1853 70.7677 46.1279 71.2141 41.2935C71.6605 36.4467 72.5285 28.6374 75.8267 24.7203C80.0549 19.7 81.0592 24.5219 80.7368 27.6829C80.4641 30.3108 80.0177 32.9387 79.5217 35.5294C78.4926 40.8844 77.1286 46.2766 74.8471 51.2349C71.0777 59.4533 64.6176 67.0271 55.7521 69.8534C50.7303 71.4524 44.7414 71.5764 41.778 66.457C39.1121 61.8457 37.9465 55.6974 37.0042 50.5283C35.0575 39.8307 35.1691 28.687 37.4382 18.039C37.9342 15.6838 38.2813 12.0394 39.8932 10.2048C40.538 9.47347 42.2615 7.32897 43.6007 9.48584C43.8735 9.93209 43.4767 11.6055 43.4147 12.0394C42.7575 17.5307 41.2076 23.1088 39.9553 28.4886C35.4543 47.8633 27.7914 74.5762 3.72422 76.2992C-1.07435 76.6463 -1.11155 84.1706 3.72422 83.8235L3.7118 83.8111Z" fill="#FDBE76"/>
</svg>
