<svg width="123" height="122" viewBox="0 0 123 122" fill="none" xmlns="http://www.w3.org/2000/svg">
<g style="mix-blend-mode:darken">
<path d="M61.8639 26.0548C61.8639 -11.6888 91.1926 -5.45678 75.6671 28.9889C91.1926 -5.45678 115.451 12.1602 87.0807 37.2821C115.451 12.1662 130.443 38.1248 94.1339 49.4976C130.437 38.1248 133.572 67.9329 95.6076 63.5256C133.572 67.9329 124.306 96.4376 91.2472 76.9414C124.306 96.4376 104.244 118.71 81.8045 87.423C104.244 118.71 76.8497 130.901 68.9171 93.1579C76.8557 130.901 46.872 130.901 54.8046 93.1579C46.8659 130.901 19.4779 118.71 41.9171 87.423C19.4779 118.71 -0.584105 96.4376 32.4744 76.9414C-0.584105 96.4376 -9.85089 67.9329 28.1139 63.5256C-9.85089 67.9329 -6.71549 38.1248 29.5876 49.4976C-6.71549 38.1248 8.27637 12.1662 36.6408 37.2821C8.27031 12.1662 32.529 -5.45072 48.0546 28.9889C32.529 -5.45678 61.8578 -11.6888 61.8578 26.0548H61.8639Z" fill="#FFD900"/>
</g>
</svg>
