<svg width="262" height="259" viewBox="0 0 262 259" fill="none" xmlns="http://www.w3.org/2000/svg">
<path d="M231.103 153.256C240.29 152.682 249.244 153.266 257.398 158.433C261.306 160.91 262.98 162.756 259.04 166.8C230.192 196.422 201.42 226.121 172.769 255.934C168.769 260.097 166.972 258.237 164.387 254.575C158.815 246.684 157.831 237.784 158.446 228.577C128.832 228.499 117.135 217.165 115.531 187.66C91.8552 187.123 79.5144 179.355 74.6985 161.95C72.1128 152.601 67.2977 147.816 58.315 145.669C43.5658 142.142 31.7885 128.931 31.3654 113.866C31.1825 107.293 30.3964 103.838 22.8816 105.373C20.683 105.823 18.1729 105.076 15.8631 104.604C10.1165 103.426 3.34899 101.612 1.25305 96.5766C-0.873651 91.4675 6.15805 88.6322 9.42599 85.2111C35.1809 58.2557 61.3656 31.7127 86.9742 4.62299C92.9859 -1.73759 95.5469 -0.247469 99.3437 6.33292C103.643 13.7846 103.614 21.7591 103.82 29.787C133.93 30.4944 145.813 42.0042 146.256 71.0792C154.989 70.8508 163.637 70.9656 171.57 75.7866C182.339 82.3316 188.102 91.8122 188.32 104.156C188.423 110.12 188.761 112.483 196.104 112.323C218.14 111.85 230.555 126.828 231.105 153.257L231.103 153.256Z" fill="#FFA300"/>
</svg>
