<svg width="145" height="217" viewBox="0 0 145 217" fill="none" xmlns="http://www.w3.org/2000/svg">
<path d="M11.7764 11.3709C30.2646 30.2594 31.3158 55.2302 16.3888 73.6332C11.0725 80.1871 7.61704 86.6354 11.9046 94.9159C17.2119 105.159 28.2686 105.548 39.4699 96.1585C54.4119 83.6368 71.0854 81.1188 88.6161 89.5208C105.76 97.7362 113.973 112.162 113.873 131.078C113.818 141.593 110.254 151.123 103.088 158.868C96.3315 166.171 94.2549 174.132 100.647 181.992C106.678 189.406 114.799 189.736 122.602 184.085C129.579 179.033 131.506 186.383 134.544 189.192C148.739 202.309 147.8 206.135 129.475 213.516C110.63 221.107 89.3481 215.276 76.8805 199.107C64.6639 183.263 64.7265 160.553 77.299 144.682C81.2266 139.726 85.6165 135.121 84.7094 128.166C83.9614 122.421 81.3973 117.866 75.6822 115.485C67.6462 112.137 61.6401 115.262 55.5476 120.53C32.3758 140.57 -2.05883 133.898 -14.6875 106.872C-22.4813 90.1974 -20.8808 73.8683 -9.30516 59.5444C-3.01056 51.7552 1.17845 44.1879 -5.62437 35.513C-11.9317 27.472 -20.1836 27.4301 -28.4095 33.4615C-34.0918 37.63 -35.9774 31.6103 -38.6245 29.1443C-54.2953 14.563 -53.0299 9.15205 -32.0817 2.58776C-14.5321 -2.91164 1.04685 1.12718 11.7764 11.3709Z" fill="#F7BBFF"/>
</svg>
