<svg width="124" height="168" viewBox="0 0 124 168" fill="none" xmlns="http://www.w3.org/2000/svg">
<path d="M162.645 71.2639H114.722L148.607 37.3826C150.698 35.2921 150.698 31.9045 148.607 29.816L138.177 19.3869C136.086 17.2963 132.698 17.2963 130.61 19.3869L96.7246 53.2682V5.35073C96.7246 2.39618 94.3283 0 91.3734 0H76.6226C73.6677 0 71.2713 2.39618 71.2713 5.35073V53.2682L37.3865 19.3869C35.2957 17.2963 31.9078 17.2963 29.819 19.3869L19.3889 29.816C17.2981 31.9065 17.2981 35.294 19.3889 37.3826L53.2737 71.2639H5.35129C2.39643 71.2639 0 73.6601 0 76.6147V91.3639C0 94.3185 2.39643 96.7147 5.35129 96.7147H53.2737L19.3889 130.596C17.2981 132.687 17.2981 136.074 19.3889 138.163L29.819 148.592C31.9098 150.682 35.2977 150.682 37.3865 148.592L71.2713 114.71V162.628C71.2713 165.582 73.6677 167.979 76.6226 167.979H91.3734C94.3283 167.979 96.7246 165.582 96.7246 162.628V114.71L130.61 148.592C132.7 150.682 136.088 150.682 138.177 148.592L148.607 138.163C150.698 136.072 150.698 132.685 148.607 130.596L114.722 96.7147H162.645C165.6 96.7147 167.996 94.3185 167.996 91.3639V76.6147C167.996 73.6601 165.6 71.2639 162.645 71.2639Z" fill="#FF531B"/>
</svg>
