<svg width="213" height="141" viewBox="0 0 213 141" fill="none" xmlns="http://www.w3.org/2000/svg">
<path d="M194.127 41.0463C199.567 50.4772 204.654 60.1375 210.581 69.2529C214.696 75.5808 212.378 77.4962 206.244 78.9304C195.659 81.4035 186.303 77.5148 176.887 73.8808C165.386 69.4436 154.125 67.1461 142.601 74.1482C131.854 80.6769 129.224 91.3479 127.022 102.403C126.062 107.225 125.449 112.135 124.175 116.872C119.28 135.062 101.168 144.387 83.3174 138.058C77.217 135.896 71.1578 133.617 65.0598 131.451C57.9418 128.921 50.6916 128.878 43.7676 131.703C40.0703 133.211 38.2891 132.627 36.3592 129.234C25.0773 109.407 13.7191 89.6245 2.13282 69.9756C-0.592866 65.3504 1.30547 63.4462 5.28826 61.8835C10.2994 59.9191 15.4657 59.7001 20.5414 61.2009C28.7292 63.6238 36.7516 66.6105 44.9586 68.9568C63.7057 74.3199 80.1051 64.8051 84.7764 45.821C86.1338 40.3083 86.6635 34.5925 87.6119 28.9788C91.5718 5.53888 111.061 -5.23564 133.297 3.2372C142.874 6.88697 152.853 13.4726 163.048 9.8037C174.365 5.73371 177.815 11.2729 181.798 19.4415C185.424 26.8794 189.984 33.8616 194.128 41.048L194.127 41.0463Z" fill="#F794FF"/>
</svg>
