<svg width="219" height="294" viewBox="0 0 219 294" fill="none" xmlns="http://www.w3.org/2000/svg">
<path d="M219 143.605H97.7758L214.872 112.231L213.112 105.677L96.0198 137.05L201.004 76.4365L197.609 70.5599L92.6251 131.17L178.344 45.455L173.545 40.6561L87.8299 126.371L148.44 21.3912L142.564 17.9965L81.9496 122.98L113.327 5.88763L106.768 4.12794L75.3911 121.228V0H68.6054V121.221L37.2315 4.12794L30.6767 5.88763L62.0504 122.98L1.44025 17.9965L-4.44006 21.3912L56.1738 126.371L-29.5449 40.6561L-34.3439 45.455L51.3751 131.174L-53.6087 70.5599L-57.0036 76.4365L47.9802 137.05L-69.1124 105.677L-70.872 112.231L46.2242 143.605H-75V150.395H46.2242L-70.872 181.769L-69.1124 188.323L47.9767 156.95L-57.0036 217.56L-53.6087 223.436L51.3751 162.826L-34.3439 248.545L-29.5449 253.344L56.1738 167.621L-4.44006 272.609L1.44025 276.004L62.0504 171.02L30.6767 288.112L37.2315 289.872L68.6054 172.779V294H75.3911V172.772L106.768 289.872L113.327 288.112L81.9496 171.02L142.564 276.004L148.44 272.609L87.8262 167.621L173.545 253.344L178.344 248.545L92.6251 162.826L197.609 223.436L201.004 217.56L96.0235 156.95L213.112 188.323L214.872 181.769L97.7758 150.395H219V143.605Z" fill="#FFA000"/>
</svg>
