<svg width="62" height="63" viewBox="0 0 62 63" fill="none" xmlns="http://www.w3.org/2000/svg">
<path d="M30.8613 13.8536C30.8613 -5.21152 16.1292 -2.06051 23.9289 15.3319C16.1292 -2.0664 3.94623 6.83301 18.192 19.5195C3.94037 6.83301 -3.58977 19.9436 14.6466 25.692C-3.58977 19.9495 -5.16611 35.0037 13.9083 32.7773C-5.16611 35.0037 -0.507393 49.3982 16.0999 39.5505C-0.507393 49.3982 9.57185 60.6476 20.8407 44.8454C9.57185 60.6476 23.3312 66.8083 27.316 47.7432C23.3312 66.8083 38.3915 66.8083 34.4066 47.7432C38.3915 66.8083 52.1508 60.6476 40.882 44.8454C52.1508 60.6476 62.2301 49.3982 45.6227 39.5505C62.2301 49.3982 66.8829 34.9978 47.8144 32.7773C66.8888 35.0037 65.3124 19.9495 47.076 25.692C65.3124 19.9495 57.7823 6.8389 43.5307 19.5195C57.7823 6.83301 45.5934 -2.0664 37.7937 15.3319C45.5934 -2.0664 30.8613 -5.21152 30.8613 13.8536Z" fill="#FDC500"/>
</svg>
