<svg width="53" height="43" viewBox="0 0 53 43" fill="none" xmlns="http://www.w3.org/2000/svg">
<path d="M48.0257 0.781331C38.9241 0.772416 29.8232 0.762821 20.7215 0.753906H20.718L16.9019 29.4024C14.8259 28.4231 12.119 28.0981 9.31152 28.6686C3.87734 29.7734 0.133095 33.8079 0.948396 37.6812C1.7637 41.5538 6.83068 43.7984 12.2649 42.6936C17.2949 41.6711 20.8737 38.1386 20.732 34.5472L23.6177 12.8799H46.4133L44.2124 29.4024C42.1364 28.4231 39.4295 28.0981 36.622 28.6686C31.1878 29.7734 27.4436 33.8079 28.2589 37.6812C29.0742 41.5538 34.1412 43.7984 39.5753 42.6936C44.6054 41.6711 48.1842 38.1386 48.0425 34.5472L52.4673 1.32446H52.4645L52.5364 0.786119C51.1068 0.784748 49.6773 0.783372 48.2477 0.782001C48.1737 0.782001 48.099 0.782001 48.025 0.782001L48.0257 0.781331Z" fill="#9747FF"/>
</svg>
