<svg width="67" height="27" viewBox="0 0 67 27" fill="none" xmlns="http://www.w3.org/2000/svg">
<path d="M11.7651 0.882031C18.2207 1.59425 22.3085 6.17769 22.3361 12.0004C22.3459 14.0741 22.693 15.8379 24.7973 16.7445C27.4012 17.8655 29.5636 16.2178 30.2312 12.6889C31.1221 7.98195 33.8998 4.90721 38.5407 3.77498C43.079 2.66749 46.8864 4.13121 49.8126 7.74275C51.4394 9.75031 52.2456 12.1168 52.0892 14.705C51.9418 17.1453 52.7866 18.9822 55.2256 19.4811C57.5266 19.9516 59.1217 18.75 59.7252 16.4606C60.265 14.414 61.7757 15.5111 62.7907 15.572C67.5316 15.8557 67.9487 16.7293 65.6143 20.9856C63.2136 25.363 58.2599 27.568 53.3722 26.4352C48.5829 25.3254 45.0587 20.9982 44.9778 16.0236C44.9529 14.4699 45.0704 12.9109 43.8151 11.73C42.7783 10.7542 41.5817 10.2875 40.1245 10.7247C38.0755 11.3395 37.4203 12.8687 37.0823 14.8188C35.7974 22.2363 28.2123 26.3294 21.6035 23.1578C17.5257 21.2014 15.2875 17.8479 15.2579 13.3225C15.2418 10.8617 14.8599 8.77086 12.216 8.18089C9.76494 7.63429 8.18966 8.91115 7.56495 11.3385C7.13374 13.0157 5.83799 12.1649 4.95082 12.1083C-0.298603 11.7762 -0.900522 10.5505 2.05981 6.04098C4.53987 2.26303 8.13037 0.605209 11.7651 0.882031Z" fill="#F7BBFF"/>
</svg>
